<?xml version="1.0" standalone="no"?>
<!DOCTYPE svg PUBLIC "-//W3C//DTD SVG 20010904//EN"
 "http://www.w3.org/TR/2001/REC-SVG-20010904/DTD/svg10.dtd">
<svg version="1.0" xmlns="http://www.w3.org/2000/svg"
 width="348.000000pt" height="719.000000pt" viewBox="0 0 348.000000 719.000000"
 preserveAspectRatio="xMidYMid meet">
<metadata>
Created by potrace 1.16, written by Peter Selinger 2001-2019
</metadata>
<g transform="translate(0.000000,719.000000) scale(0.100000,-0.100000)"
fill="#000000" stroke="none">
<path d="M85 7180 c3 -5 0 -10 -9 -10 -20 0 -76 -48 -76 -66 0 -20 8 -18 42
11 45 38 62 34 53 -12 -8 -47 -38 -96 -70 -117 -26 -17 -33 -50 -14 -61 6 -4
13 2 16 14 6 25 7 25 33 9 22 -14 39 -3 22 14 -17 17 -15 25 9 31 13 3 19 12
17 24 -2 14 2 17 20 15 26 -4 29 15 5 34 -16 12 -16 15 -3 24 12 8 13 13 3 29
-11 17 -10 21 7 26 26 8 26 25 1 25 -11 0 -23 5 -26 10 -3 6 -13 10 -21 10 -8
0 -12 -4 -9 -10z"/>
<path d="M899 7156 c12 -19 21 -50 21 -72 0 -22 7 -50 16 -62 19 -28 64 -29
88 -3 15 16 23 18 47 9 16 -5 29 -16 29 -24 0 -8 11 -26 24 -39 28 -28 46 -25
90 14 22 20 30 23 34 12 9 -25 50 -61 70 -61 41 0 102 71 102 120 0 29 -35 60
-70 60 -33 0 -38 16 -19 52 14 25 3 36 -21 20 -12 -7 -21 -8 -25 -2 -3 6 -19
10 -34 10 -24 0 -34 -10 -64 -59 -46 -73 -60 -85 -93 -77 l-27 7 22 23 c11 12
21 28 21 34 0 19 -25 14 -45 -8 -22 -24 -34 -25 -63 -4 l-23 15 27 32 c24 28
25 32 10 35 -10 2 -29 -6 -42 -19 l-24 -23 -16 22 c-8 12 -24 22 -35 22 -21 0
-21 0 0 -34z"/>
<path d="M1450 7161 c0 -40 26 -64 60 -57 42 8 71 -28 63 -78 -5 -31 -2 -42
12 -52 24 -18 63 -18 98 1 22 11 39 12 80 4 67 -13 144 -2 169 23 25 25 21 71
-12 141 -18 37 -27 47 -47 47 -13 0 -22 -4 -18 -10 3 -5 -10 -29 -29 -54 -19
-25 -40 -62 -47 -81 -9 -23 -18 -34 -27 -30 -7 3 -18 5 -23 5 -14 0 17 67 56
121 35 49 35 49 11 49 -18 0 -32 -13 -54 -47 -17 -27 -35 -61 -41 -76 l-11
-28 -30 18 c-23 13 -28 22 -23 38 19 57 -6 89 -26 33 l-12 -33 -19 23 c-15 18
-17 28 -10 42 6 10 10 21 10 23 0 3 -29 5 -65 6 l-65 1 0 -29z"/>
<path d="M2607 7176 c-3 -7 -23 -16 -45 -20 -27 -4 -48 -16 -65 -36 -26 -30
-43 -82 -33 -99 3 -5 -10 -18 -29 -30 -19 -11 -40 -32 -45 -46 -5 -14 -21 -29
-34 -35 -28 -10 -56 -47 -56 -72 0 -9 -12 -29 -26 -45 -14 -15 -28 -40 -31
-55 -3 -15 -16 -34 -29 -43 -13 -8 -28 -33 -34 -55 -9 -32 -15 -40 -34 -40
-27 0 -56 29 -56 56 0 10 38 86 85 168 47 83 84 157 83 165 -4 23 -82 26 -135
6 -56 -22 -110 -84 -164 -191 -43 -85 -44 -89 -44 -183 0 -84 4 -102 27 -146
43 -83 144 -165 203 -165 41 0 33 36 -15 60 -106 54 -164 146 -164 261 0 58 5
74 43 145 24 43 54 94 68 112 24 32 77 66 93 60 5 -2 -24 -59 -63 -127 -87
-151 -93 -189 -39 -243 28 -28 39 -33 81 -33 56 0 81 17 81 55 0 27 26 60 48
60 13 0 26 36 17 50 -4 6 7 23 24 39 17 16 31 39 31 51 0 35 18 58 50 65 24 5
32 14 37 36 6 33 29 49 67 49 34 0 41 15 26 61 -11 33 -11 42 4 64 13 20 24
25 61 25 48 0 54 5 65 56 8 32 7 34 -20 34 -15 0 -30 -6 -33 -14z"/>
<path d="M2822 7082 l-61 -108 -50 0 c-40 1 -55 -4 -73 -22 -31 -31 -31 -92 0
-125 l23 -25 -51 -90 -51 -89 -42 4 c-32 4 -48 0 -68 -16 -43 -34 -44 -106 -2
-138 15 -12 14 -15 -8 -39 -13 -15 -41 -37 -61 -50 -67 -43 -40 -86 30 -50 15
8 45 33 66 55 37 38 42 40 82 34 65 -9 132 14 156 51 34 55 5 121 -59 135
l-30 6 45 80 46 80 72 0 c92 0 127 22 132 80 5 52 -14 82 -59 97 l-37 13 32
55 c18 30 47 81 65 113 l32 57 -33 0 c-33 0 -36 -4 -96 -108z"/>
<path d="M3343 7033 c-29 -27 -93 -124 -93 -142 0 -7 176 -109 223 -130 5 -2
7 7 5 20 -2 18 -21 34 -76 63 -60 32 -70 41 -56 49 9 5 43 7 75 3 53 -5 59 -4
59 13 0 15 -10 20 -45 26 -26 3 -60 3 -78 0 l-32 -7 24 18 c14 10 49 20 78 22
45 4 53 8 53 24 0 19 -5 20 -56 16 l-57 -5 27 19 c14 11 24 24 20 29 -10 17
-40 9 -71 -18z"/>
<path d="M330 7022 c-30 -10 -71 -27 -90 -37 -67 -34 -159 -116 -200 -177
l-40 -61 0 -203 1 -203 23 10 c20 10 29 4 85 -51 34 -35 61 -64 59 -65 -2 -1
-40 -24 -86 -50 -81 -46 -82 -47 -82 -86 0 -21 3 -39 6 -39 3 0 49 25 102 56
54 31 100 59 104 61 4 2 1 -15 -8 -39 -24 -69 -28 -155 -11 -224 19 -72 51
-131 77 -139 28 -9 187 14 253 36 158 53 266 135 359 273 33 49 35 71 8 86
-22 12 -22 13 -95 -88 -86 -118 -239 -205 -407 -232 -93 -15 -101 -11 -123 63
-19 66 -19 134 1 194 28 82 46 99 107 106 144 15 267 140 267 273 0 67 -25
144 -62 189 -89 107 -262 107 -345 -2 -25 -33 -28 -44 -28 -114 0 -63 4 -83
21 -105 52 -70 121 -90 197 -56 52 23 78 63 79 121 1 74 -54 133 -89 98 -14
-14 -13 -19 6 -50 28 -45 27 -63 -5 -92 -50 -46 -121 -21 -144 50 -30 90 63
180 165 161 111 -21 173 -184 110 -292 -46 -79 -161 -132 -252 -115 -93 18
-167 84 -221 201 -63 134 -12 292 127 394 193 142 389 133 541 -23 103 -106
163 -238 178 -391 7 -71 8 -75 33 -78 36 -4 43 27 29 131 -29 211 -162 409
-329 489 -58 28 -77 32 -166 35 -76 2 -113 -1 -155 -15z"/>
<path d="M1506 6748 c-7 -13 -16 -35 -20 -50 -7 -30 -47 -48 -105 -48 -59 0
-121 -38 -148 -89 -13 -24 -38 -54 -57 -67 -39 -27 -45 -38 -53 -116 -5 -54
-4 -58 15 -58 17 0 21 9 27 50 4 28 16 60 26 73 l20 22 -5 -30 c-31 -181 -28
-219 18 -280 l25 -32 -25 -12 c-14 -6 -41 -11 -61 -11 l-36 0 6 40 c3 27 1 43
-9 51 -21 17 -31 2 -39 -58 -6 -47 -5 -53 18 -68 21 -13 35 -14 87 -6 34 6 68
15 75 21 10 9 16 7 24 -9 17 -32 13 -39 -31 -59 -51 -23 -72 -44 -93 -96 -12
-27 -13 -42 -6 -49 19 -19 123 -21 164 -3 37 15 38 15 81 -16 36 -25 55 -31
102 -32 67 -1 72 6 54 76 -8 27 -26 56 -51 80 -33 32 -38 41 -29 57 10 19 11
19 35 -5 27 -27 76 -32 95 -9 18 22 80 471 69 507 -4 16 -22 50 -39 76 -27 40
-30 53 -25 89 5 34 2 46 -14 62 -28 28 -76 27 -95 -1z m66 -86 c3 -44 11 -67
32 -94 l27 -36 -48 -37 -48 -37 -103 7 c-97 6 -104 5 -100 -12 2 -13 17 -20
53 -27 81 -14 78 -10 71 -69 -9 -68 7 -87 54 -67 46 19 80 65 80 109 0 27 7
44 25 61 14 13 25 19 25 14 -1 -47 -43 -272 -56 -293 -9 -14 -43 -44 -75 -65
-33 -21 -66 -51 -74 -65 -12 -23 -19 -27 -49 -23 -30 3 -37 9 -46 38 -6 18
-31 58 -56 87 -24 30 -47 68 -50 85 -8 39 24 268 42 304 21 40 53 57 122 64
65 7 119 33 128 62 25 79 40 77 46 -6z m-128 -700 c29 -17 76 -75 76 -93 0 -5
-14 -9 -30 -9 -22 0 -43 12 -74 40 l-43 40 -56 -25 c-37 -17 -64 -24 -81 -19
-14 3 -26 9 -26 13 0 14 58 62 86 71 39 13 111 4 148 -18z"/>
<path d="M3204 6641 c-44 -20 -76 -62 -93 -125 -18 -67 -68 -84 -138 -46 -45
24 -122 26 -162 5 -16 -8 -36 -30 -45 -50 -10 -20 -24 -39 -32 -42 -8 -3 -19
-14 -25 -24 -8 -15 -6 -21 6 -25 17 -7 75 41 75 61 0 12 41 55 53 55 3 0 4 -7
1 -15 -15 -37 45 -82 72 -55 7 7 20 5 41 -5 17 -9 48 -16 69 -17 l37 -1 -23
-19 c-17 -13 -32 -17 -52 -12 -41 8 -87 -13 -95 -44 -11 -46 7 -57 82 -53 l68
3 -6 -60 c-6 -71 12 -99 57 -88 35 9 49 40 43 91 -4 27 -2 49 7 60 12 16 14
14 24 -26 6 -24 18 -53 25 -64 11 -14 12 -23 3 -37 -16 -26 4 -52 43 -56 17
-2 31 -7 31 -11 0 -11 -44 -51 -56 -51 -14 0 -54 -56 -54 -75 0 -22 7 -19 57
25 25 22 49 40 52 40 4 0 15 14 25 31 23 40 17 120 -13 170 -36 59 -24 118 29
134 55 17 99 46 120 80 20 32 20 55 0 55 -5 0 -17 -13 -26 -29 -16 -28 -79
-71 -103 -71 -6 0 -20 9 -31 20 -36 36 -100 14 -100 -35 0 -9 -16 -35 -36 -57
-30 -34 -35 -46 -33 -81 3 -64 0 -77 -16 -77 -11 0 -15 11 -15 40 0 49 19 98
49 124 22 20 29 56 11 56 -5 0 -28 -16 -50 -36 -31 -28 -51 -37 -95 -43 -60
-8 -71 -5 -54 16 7 7 32 13 60 13 42 0 55 5 88 35 21 19 44 35 50 35 17 0 61
47 61 65 0 9 -11 27 -24 40 -21 21 -23 29 -15 59 5 19 25 48 45 65 28 25 44
31 80 31 56 0 97 -21 121 -60 19 -34 43 -40 43 -11 0 48 -90 111 -160 111 -19
0 -53 -9 -76 -19z"/>
<path d="M791 6591 c-11 -7 -11 -23 -3 -86 24 -177 -51 -348 -197 -449 -44
-31 -52 -59 -22 -75 43 -23 183 108 239 223 43 88 55 154 50 260 -6 119 -24
154 -67 127z"/>
<path d="M2241 6089 c-117 -20 -245 -106 -311 -209 -71 -110 -91 -271 -50
-404 36 -116 172 -296 223 -296 48 0 77 18 96 60 l18 41 92 -128 c94 -130 107
-165 65 -171 -15 -2 -29 7 -44 28 -29 40 -69 60 -124 60 -59 0 -106 -37 -106
-84 0 -50 20 -70 71 -70 34 -1 48 -7 63 -25 26 -32 92 -61 139 -61 116 0 202
118 168 230 -6 22 -47 89 -91 150 -44 62 -80 115 -80 119 0 4 10 17 23 29 l23
22 60 -82 c84 -119 121 -156 165 -169 21 -7 46 -23 54 -36 12 -18 24 -23 60
-23 39 0 46 4 60 30 20 39 19 49 -11 94 -19 27 -44 46 -92 67 -66 30 -92 31
-92 6 0 -20 29 -43 72 -56 38 -13 78 -52 78 -77 0 -19 -29 -17 -37 2 -3 9 -29
27 -57 39 -60 27 -80 48 -169 174 -52 73 -64 97 -56 108 10 11 18 6 44 -24 36
-42 61 -38 51 8 -5 24 -1 31 23 43 l28 15 54 -71 c77 -102 95 -113 183 -113
64 0 77 3 109 28 20 15 44 42 54 60 22 43 22 137 -1 172 -16 25 -16 29 -1 61
40 84 -50 141 -124 78 -53 -44 -60 -123 -16 -190 8 -13 15 -30 15 -38 0 -18
-36 -40 -50 -31 -10 6 -120 152 -120 159 0 2 16 7 36 11 51 9 84 45 84 91 0
37 -43 108 -132 216 -100 121 -284 186 -447 157z m262 -86 c78 -37 149 -104
220 -210 60 -88 56 -108 -23 -115 -59 -6 -85 -26 -112 -85 -24 -53 -52 -73
-104 -73 -53 0 -90 -28 -116 -89 -23 -54 -31 -61 -81 -61 -64 0 -115 -36 -134
-95 -8 -24 -15 -30 -39 -30 -24 0 -37 12 -86 80 -82 113 -109 173 -115 259
-12 159 54 298 184 387 78 54 136 70 243 66 82 -2 104 -7 163 -34z m447 -327
c0 -7 -7 -19 -15 -26 -21 -17 -19 -53 5 -92 56 -92 -18 -209 -122 -195 -48 6
-66 21 -134 114 -44 58 -52 76 -46 94 8 20 14 14 66 -59 66 -94 87 -112 134
-112 72 0 107 87 62 155 -26 39 -25 83 2 112 24 26 48 30 48 9z m-650 -366
c22 -12 175 -225 190 -265 22 -58 -20 -133 -85 -155 -49 -16 -97 2 -138 52
-30 38 -34 39 -74 33 -48 -7 -56 5 -21 29 38 27 66 19 113 -29 24 -24 54 -47
67 -50 57 -14 116 40 104 96 -3 17 -44 84 -91 149 -105 146 -114 166 -65 140z"/>
<path d="M2414 5844 c-59 -29 -72 -104 -26 -155 24 -26 36 -32 72 -32 36 0 48
6 72 32 47 53 30 138 -33 160 -41 14 -48 14 -85 -5z"/>
<path d="M2046 5679 c-55 -43 -22 -133 49 -133 46 0 75 31 75 79 0 38 -37 75
-75 75 -12 0 -34 -9 -49 -21z"/>
<path d="M1495 5629 c-18 -5 -56 -37 -97 -83 -48 -53 -86 -83 -129 -105 l-61
-31 -92 50 c-98 52 -209 92 -307 110 -54 10 -63 9 -80 -6 -12 -11 -19 -28 -17
-43 3 -24 11 -28 113 -54 284 -71 490 -234 611 -483 59 -120 81 -229 93 -465
15 -275 -2 -389 -80 -540 -69 -133 -164 -223 -350 -332 -106 -62 -145 -100
-188 -186 -16 -31 -36 -63 -45 -70 -20 -16 -53 -6 -61 20 -4 11 -15 148 -24
303 -22 347 -16 331 -153 399 -110 54 -128 78 -128 171 0 55 0 55 26 46 37
-15 101 -12 134 5 16 8 39 29 52 47 21 30 23 41 20 142 -4 158 -16 236 -47
305 -35 77 -112 151 -202 194 -61 29 -77 32 -158 32 -83 0 -96 -3 -166 -36
-41 -20 -94 -54 -117 -76 l-42 -40 0 -330 0 -329 30 -23 c17 -12 42 -40 57
-62 23 -34 27 -53 31 -141 l5 -101 -62 6 -61 5 0 -48 0 -47 55 -7 c30 -3 70
-13 89 -22 39 -19 63 -14 74 15 10 28 -5 276 -19 330 -9 33 -33 66 -92 128
l-79 85 6 51 c34 262 336 373 520 192 48 -47 93 -141 79 -163 -21 -35 -39 -36
-107 -9 -77 31 -114 34 -123 10 -9 -23 16 -478 29 -531 16 -65 70 -117 162
-157 44 -18 83 -40 87 -47 3 -7 10 -74 13 -148 9 -169 17 -200 61 -239 31 -26
44 -31 90 -31 68 0 100 25 144 114 37 75 84 119 186 175 191 105 330 260 401
447 54 141 64 280 43 576 -11 163 -26 247 -59 342 l-20 59 40 86 c51 111 70
205 70 344 0 93 -3 117 -20 144 -29 48 -80 68 -135 52z m56 -116 c24 -60 -1
-248 -48 -365 l-15 -38 -50 68 c-28 37 -71 88 -96 114 -25 26 -44 49 -41 51 2
2 28 18 57 36 29 18 78 62 108 97 31 35 61 64 65 64 5 0 14 -12 20 -27z
m-1117 -573 c71 -27 157 -116 181 -190 9 -27 15 -54 13 -59 -2 -5 -32 9 -68
30 -90 55 -156 72 -249 67 -89 -6 -175 -44 -247 -110 l-44 -41 0 35 c0 47 22
108 59 161 77 112 223 156 355 107z m160 -919 c35 -16 66 -32 68 -37 3 -5 9
-42 12 -81 5 -52 4 -73 -4 -73 -29 0 -121 54 -134 78 -19 37 -31 142 -16 142
6 0 39 -13 74 -29z"/>
<path d="M3351 5614 c-12 -15 -24 -37 -27 -49 -5 -19 -12 -21 -82 -20 -71 0
-77 -2 -80 -21 -3 -18 6 -25 42 -39 l45 -17 -34 -41 c-36 -42 -45 -84 -21 -93
16 -6 66 17 85 40 23 27 37 18 50 -34 9 -36 18 -50 30 -50 22 0 41 40 41 87 0
28 3 34 16 29 39 -15 64 -18 64 -7 0 6 -4 11 -10 11 -6 0 -5 10 2 25 10 21 8
27 -8 39 -24 18 -31 12 -10 -9 12 -13 13 -19 4 -29 -10 -11 -18 -11 -45 0 -44
19 -45 19 -37 -20 8 -47 -4 -102 -20 -86 -8 10 -8 14 2 17 16 6 15 23 -2 23
-7 0 -16 14 -19 30 -4 17 -10 30 -15 30 -5 0 -30 -16 -55 -35 -48 -37 -70 -44
-61 -21 3 9 12 12 22 9 11 -5 14 -2 9 9 -3 10 3 24 15 35 25 22 52 73 43 81
-3 4 -10 1 -14 -7 -7 -10 -16 -10 -50 0 -40 12 -56 29 -26 29 8 0 15 -4 15
-10 0 -5 5 -10 11 -10 5 0 7 5 4 10 -3 6 1 10 9 10 10 0 13 -6 10 -15 -4 -8
-1 -15 5 -15 6 0 11 5 11 10 0 6 14 10 31 10 25 0 32 6 45 35 9 24 19 33 29
29 8 -4 15 -2 15 4 0 6 -6 13 -12 15 -8 3 -6 6 5 6 21 1 21 -5 2 -59 -20 -56
-19 -57 11 -64 33 -9 43 0 20 17 -14 10 -15 17 -6 44 27 77 -14 124 -59 67z"/>
<path d="M265 5531 c-68 -25 -193 -88 -232 -118 -31 -22 -33 -28 -33 -84 l0
-61 28 22 c92 72 155 105 317 167 47 17 50 21 50 53 0 34 -1 35 -40 37 -22 1
-62 -6 -90 -16z"/>
<path d="M2897 4774 c-175 -122 -223 -164 -185 -164 6 0 33 14 60 31 56 36 94
34 104 -6 9 -36 -2 -45 -55 -45 -27 0 -55 -6 -67 -15 -19 -15 -18 -16 10 -38
16 -12 37 -29 48 -37 10 -8 24 -37 31 -65 16 -67 35 -64 70 8 30 61 44 68 72
37 13 -14 16 -28 11 -54 -4 -19 -2 -37 3 -40 14 -9 310 202 332 237 17 26 19
43 15 92 -3 33 -2 67 3 74 15 24 -6 51 -38 51 -19 0 -45 13 -71 35 -36 30 -49
35 -94 35 -52 0 -58 -3 -249 -136z m323 71 c27 -22 52 -35 71 -35 32 0 34 -2
18 -32 -8 -16 -8 -30 1 -58 10 -31 10 -42 -3 -66 -9 -16 -16 -23 -17 -15 0 8
-23 35 -50 61 -31 27 -56 62 -65 85 -16 47 -40 53 -40 11 0 -24 -5 -31 -25
-36 -35 -8 -36 -35 -5 -75 28 -38 58 -45 86 -19 17 15 20 14 43 -10 36 -35 33
-50 -18 -85 l-44 -31 -6 25 c-3 13 -26 40 -51 61 -34 27 -48 48 -56 80 -6 24
-22 54 -36 68 l-24 24 33 25 c97 71 125 75 188 22z m-223 -97 c12 -13 27 -42
34 -66 9 -31 26 -54 61 -83 49 -42 59 -67 34 -88 -11 -10 -16 -8 -20 7 -10 30
-53 65 -71 58 -15 -5 -12 -11 14 -41 36 -41 39 -60 11 -75 -17 -9 -22 -7 -29
14 -12 31 -48 56 -81 56 -40 0 -49 16 -43 75 5 48 3 56 -20 77 l-26 24 22 13
c19 12 24 10 49 -18 15 -17 28 -38 28 -46 0 -8 7 -15 16 -15 24 0 10 57 -22
91 -19 20 -22 28 -12 32 24 10 34 7 55 -15z"/>
<path d="M2075 4738 c-34 -12 -92 -63 -100 -89 -6 -17 -8 -17 -38 1 -39 24
-59 25 -102 5 -37 -18 -55 -51 -55 -100 0 -51 16 -85 41 -85 17 0 20 4 14 28
-7 36 16 62 39 42 20 -16 70 -170 60 -180 -15 -13 -75 -30 -106 -30 -21 0 -39
10 -59 31 -39 42 -61 34 -47 -18 16 -60 36 -91 68 -108 41 -21 85 -19 170 10
40 14 80 25 89 25 31 0 -6 -21 -90 -50 -107 -38 -139 -70 -138 -138 1 -59 21
-116 42 -120 14 -3 17 5 17 37 0 51 29 84 94 105 27 9 50 15 51 13 0 -1 13
-42 29 -91 26 -82 27 -89 11 -105 -15 -15 -18 -14 -39 12 -32 40 -50 36 -43
-10 9 -51 37 -86 82 -101 33 -11 43 -10 74 5 21 11 42 31 51 50 10 23 20 31
30 26 8 -3 42 -8 75 -10 51 -4 65 -1 94 19 45 30 59 54 44 69 -9 9 -19 6 -43
-15 -59 -49 -109 -32 -139 49 -27 71 -27 71 8 78 16 3 41 18 56 32 22 20 38
25 79 25 85 0 187 59 147 85 -5 3 -29 -5 -52 -17 -24 -12 -68 -24 -98 -26 -55
-4 -56 -3 -68 27 -8 22 -18 31 -33 31 -19 0 -21 -4 -15 -22 18 -59 17 -66 -8
-82 -32 -21 -57 -11 -64 26 -12 59 -74 45 -94 -20 -10 -36 -8 -49 20 -133 17
-52 31 -100 31 -107 0 -21 -39 -52 -66 -52 l-27 0 27 25 c34 31 33 56 -5 180
-30 97 -30 103 -15 138 9 22 29 45 51 58 43 26 41 44 -6 45 -63 2 -67 4 -97
29 -23 19 -39 50 -63 122 -37 112 -57 137 -105 131 -31 -4 -32 -3 -17 14 51
56 92 27 133 -96 36 -109 60 -136 121 -136 42 0 49 13 28 51 -14 28 -2 58 27
65 30 8 52 -9 56 -44 2 -19 9 -27 23 -27 17 0 20 6 18 40 -3 38 0 42 44 69
130 83 286 15 302 -132 5 -43 10 -58 24 -60 14 -3 17 5 17 53 0 122 -96 217
-220 219 -59 1 -101 -13 -165 -53 -26 -16 -56 -25 -85 -26 -25 0 -52 -4 -61
-8 -14 -7 -20 3 -34 58 -18 65 -18 66 2 93 16 22 29 28 72 30 42 2 51 6 51 21
0 30 -57 39 -115 19z"/>
<path d="M3115 4210 c-3 -5 -3 -36 1 -68 8 -73 -13 -106 -70 -106 -48 0 -65
20 -79 90 -10 49 -16 60 -34 62 -17 3 -24 -3 -29 -25 -9 -38 -41 -71 -159
-163 -126 -98 -189 -165 -222 -236 -22 -49 -25 -66 -21 -136 3 -56 10 -84 22
-96 15 -16 20 -15 65 11 60 33 122 43 181 27 36 -9 59 -26 118 -88 40 -42 96
-91 125 -108 60 -35 66 -51 70 -189 1 -60 -3 -102 -12 -125 -40 -96 -108 -160
-199 -186 -45 -13 -53 -19 -50 -37 3 -20 8 -22 65 -20 35 1 87 9 117 17 60 18
139 72 144 99 4 22 -25 33 -49 18 -24 -14 -24 -17 11 52 38 76 45 126 30 249
-16 147 -16 146 -64 160 -31 9 -62 34 -126 99 -50 51 -101 94 -125 103 -66 28
-142 31 -209 8 l-58 -20 4 64 c6 94 48 149 217 283 l136 107 24 -29 c32 -39
85 -60 128 -52 41 7 99 56 107 90 4 14 10 25 15 25 4 0 71 -27 149 -59 l142
-59 0 33 c0 36 4 33 -164 99 -107 43 -134 59 -146 92 -10 24 -43 33 -55 14z"/>
<path d="M3429 3700 c-49 -26 -105 -90 -133 -153 -24 -53 -62 -100 -106 -128
l-24 -16 12 -90 c7 -50 12 -106 12 -126 0 -51 9 -67 36 -67 23 0 24 3 23 73 0
39 -4 95 -9 122 -8 50 -8 50 35 95 23 25 59 78 80 118 28 54 50 81 82 103 34
24 43 36 43 59 0 35 -3 35 -51 10z"/>
<path d="M1505 3643 c-28 -10 -65 -29 -82 -41 -67 -48 -116 -211 -79 -267 21
-32 59 -33 127 -3 l51 21 45 -45 46 -46 1 -133 c3 -180 43 -333 91 -345 41
-10 64 14 119 123 49 99 54 105 65 85 21 -39 44 -27 79 43 38 77 40 110 11
165 -17 33 -26 40 -42 36 -11 -3 -37 4 -59 15 -21 11 -43 17 -48 14 -23 -14
-6 -36 52 -67 81 -44 88 -56 60 -110 l-22 -43 3 43 2 43 -125 68 c-86 47 -147
89 -197 135 -39 36 -76 66 -81 66 -6 0 -34 -11 -64 -25 -75 -35 -78 -34 -78
28 1 102 56 174 157 203 140 41 319 -48 369 -184 23 -64 37 -78 55 -59 12 13
18 12 51 -4 48 -25 79 -24 112 2 32 26 90 135 81 156 -8 22 -69 10 -108 -20
l-32 -24 -175 90 c-172 88 -177 90 -255 94 -59 3 -93 -1 -130 -14z m273 -482
l102 -53 -27 -48 c-20 -36 -35 -50 -56 -54 -32 -7 -87 -57 -87 -80 0 -21 39
-21 46 -1 4 9 15 20 26 26 17 9 15 1 -13 -52 -19 -35 -39 -64 -46 -67 -17 -5
-52 116 -65 223 -11 87 -5 170 11 163 4 -2 54 -27 109 -57z"/>
<path d="M0 3595 c0 -8 4 -15 9 -15 12 0 71 -49 71 -60 0 -16 -49 -17 -64 -1
-15 14 -16 9 -16 -51 0 -65 1 -68 35 -93 29 -23 32 -29 22 -45 -21 -35 5 -35
34 0 33 39 44 83 36 142 -6 48 -30 84 -77 116 -39 26 -50 28 -50 7z"/>
<path d="M2467 3339 c-10 -6 -73 -60 -140 -120 -67 -60 -127 -109 -134 -109
-18 0 -27 20 -14 33 13 13 15 47 2 47 -18 0 -69 -50 -81 -80 -27 -64 17 -140
80 -140 24 0 29 -5 35 -37 10 -57 41 -99 89 -122 76 -37 140 -23 227 50 52 43
58 56 33 66 -10 3 -29 -7 -52 -29 -57 -54 -83 -68 -127 -68 -69 0 -135 59
-135 120 0 20 1 20 22 6 12 -9 39 -16 59 -16 33 0 51 12 159 110 116 103 140
118 140 85 0 -7 16 -27 35 -42 l35 -29 -30 -29 c-31 -30 -39 -55 -17 -55 7 0
52 36 99 81 63 57 90 90 97 116 12 42 5 88 -17 105 -18 15 -164 20 -199 7 -21
-8 -29 -4 -57 26 -35 37 -73 45 -109 24z m81 -41 c30 -30 13 -56 -119 -175
-72 -65 -135 -119 -140 -121 -5 -2 -9 8 -9 21 0 20 26 49 115 128 111 99 133
127 120 149 -9 14 18 13 33 -2z m270 -66 c8 -54 -46 -122 -96 -122 -64 0 -82
68 -31 120 28 27 37 31 78 28 40 -3 46 -6 49 -26z"/>
<path d="M481 3316 c-32 -18 -50 -53 -51 -98 0 -44 -3 -45 -61 -18 -56 25 -92
25 -145 -1 -38 -18 -49 -32 -93 -119 -59 -114 -67 -177 -31 -235 50 -82 193
-88 244 -11 40 63 1 90 -52 36 -51 -50 -121 -38 -148 25 -16 39 -8 71 27 104
33 31 65 26 173 -24 l96 -44 0 -53 c0 -91 79 -217 146 -234 58 -15 58 32 1 73
-49 34 -87 101 -87 151 l0 31 98 -46 c162 -77 215 -92 319 -93 l92 0 -11 -31
c-9 -25 -25 -38 -82 -65 -39 -19 -78 -34 -88 -34 -19 0 -38 -28 -31 -47 6 -18
43 -16 88 3 20 8 39 13 41 11 2 -2 -16 -48 -42 -102 -25 -53 -43 -103 -40
-111 7 -17 119 -74 146 -74 11 0 23 8 27 18 35 105 85 151 196 177 131 31 213
100 244 204 52 179 -72 356 -257 368 -57 4 -81 0 -187 -36 -126 -43 -199 -51
-248 -29 l-26 12 43 36 c37 33 43 42 43 79 0 51 -22 74 -71 75 -27 1 -41 9
-56 29 -15 20 -28 27 -55 27 -26 0 -42 8 -63 30 -30 32 -60 37 -99 16z m67
-76 c18 -24 30 -30 58 -30 27 0 43 -8 65 -31 24 -26 35 -30 59 -26 59 12 50
-25 -16 -67 l-46 -29 -89 43 -89 44 0 44 c0 43 14 82 28 82 5 0 18 -13 30 -30z
m-14 -187 c279 -134 289 -136 482 -73 107 35 139 41 187 38 140 -10 238 -160
193 -295 -30 -91 -77 -124 -242 -172 -79 -23 -136 -69 -167 -134 -18 -37 -18
-37 -47 -22 l-29 15 83 172 c72 151 88 177 127 207 81 62 48 87 -66 52 -74
-23 -186 -28 -250 -10 -22 6 -148 63 -280 126 -142 68 -257 117 -282 120 -40
5 -41 6 -30 30 12 27 51 52 81 53 11 0 119 -48 240 -107z"/>
<path d="M1218 2816 c-24 -18 -39 -63 -32 -92 9 -33 41 -54 85 -54 71 0 105
85 54 135 -27 28 -79 33 -107 11z"/>
<path d="M3431 2919 c-24 -26 -45 -84 -36 -99 3 -5 15 -10 27 -10 18 0 19 -2
7 -17 -11 -13 -11 -17 -1 -20 19 -7 14 -30 -9 -36 -13 -3 -18 -10 -14 -17 4
-7 16 -10 26 -7 11 3 19 0 19 -8 0 -7 -20 -15 -50 -19 -27 -4 -50 -11 -50 -17
0 -22 34 -76 73 -116 46 -48 57 -52 57 -23 0 11 -5 20 -12 20 -9 0 -9 3 0 12
7 7 12 23 12 38 l-1 25 -19 -23 c-11 -14 -24 -20 -31 -16 -9 5 -3 14 17 30
l29 23 2 140 c1 107 -2 142 -12 151 -10 8 -18 6 -34 -11z"/>
<path d="M2468 2658 c-7 -13 -15 -47 -18 -76 -5 -52 -6 -54 -43 -67 -43 -15
-87 -51 -87 -72 0 -28 50 -47 121 -46 38 1 69 -3 69 -8 0 -18 -42 -30 -81 -24
-56 10 -52 -15 9 -54 57 -37 62 -37 62 -11 0 11 -6 20 -12 20 -7 0 2 9 20 20
17 11 33 25 33 32 5 52 -19 70 -85 62 -28 -3 -62 -2 -75 3 l-23 9 26 17 c14
10 43 21 63 25 36 8 38 10 36 43 -3 43 5 99 15 99 13 0 42 -57 42 -82 0 -37
27 -68 60 -68 38 0 60 24 60 66 0 37 6 40 33 19 17 -12 18 -18 7 -52 -7 -21
-26 -64 -41 -95 -34 -68 -35 -78 -9 -78 20 0 104 75 131 118 14 22 14 22 26 4
10 -17 5 -26 -41 -72 -29 -29 -61 -57 -70 -62 -9 -5 -16 -16 -16 -23 0 -25 62
-18 123 13 l56 29 7 -46 c5 -31 2 -67 -10 -111 -17 -64 -17 -64 6 -81 18 -14
20 -20 9 -33 -12 -14 -20 -11 -72 25 -59 39 -68 52 -49 64 14 9 13 35 -2 35
-7 0 -26 -14 -44 -31 -33 -32 -85 -42 -106 -21 -9 9 -6 12 11 12 26 0 81 51
81 74 0 20 -19 20 -41 0 -16 -14 -20 -14 -43 1 -24 16 -26 16 -32 1 -4 -11 1
-22 12 -31 18 -13 16 -14 -18 -15 -31 0 -38 -4 -38 -19 0 -23 42 -59 79 -68
13 -3 42 -2 62 4 35 9 42 7 100 -34 65 -44 86 -50 120 -33 23 13 26 71 5 89
-11 9 -12 20 -4 49 6 20 8 73 6 117 -7 130 -55 207 -192 307 -101 74 -125 77
-91 12 19 -36 19 -65 2 -89 -16 -21 -37 -12 -37 16 0 48 -57 139 -86 139 -7 0
-19 -10 -26 -22z"/>
<path d="M1590 2634 c-14 -7 -41 -16 -61 -19 -77 -12 -132 -70 -164 -171 -9
-33 -28 -70 -40 -84 -32 -35 -48 -69 -41 -87 5 -12 16 -14 49 -9 39 6 45 4 77
-29 32 -33 60 -45 60 -27 0 5 -12 19 -26 33 -35 33 -64 91 -64 131 0 93 73
201 145 213 22 3 54 12 72 20 l32 14 -24 -63 c-21 -56 -22 -66 -10 -82 23 -31
18 -50 -12 -49 -32 0 -53 -32 -53 -85 0 -47 23 -78 65 -86 63 -11 118 49 115
124 -3 58 -1 72 11 72 6 0 13 -9 16 -21 5 -18 11 -20 39 -14 21 3 34 2 34 -5
0 -12 -36 -50 -48 -50 -5 0 -19 -23 -32 -51 -14 -28 -37 -62 -53 -75 -30 -26
-96 -47 -129 -42 -12 2 -23 -3 -26 -11 -4 -11 9 -13 61 -9 82 5 130 38 167
116 14 29 33 55 43 58 18 6 47 53 47 77 0 15 -44 32 -60 22 -5 -3 -20 6 -34
20 -14 14 -30 25 -36 25 -17 0 -32 -52 -27 -93 4 -32 1 -40 -18 -53 -31 -20
-53 -15 -78 18 -21 28 -17 52 5 30 20 -20 28 -14 48 34 24 54 25 87 6 103 -13
11 -13 18 -1 51 12 35 12 42 -1 55 -18 18 -21 18 -54 -1z"/>
<path d="M97 2544 c-4 -22 -21 -52 -45 -78 -29 -32 -40 -53 -45 -88 -6 -43 -4
-50 23 -77 34 -34 37 -49 25 -133 -6 -40 -5 -48 8 -48 11 0 18 14 23 46 3 25
17 58 30 74 31 36 33 101 4 130 -27 27 -38 25 -42 -7 -4 -37 -32 -37 -36 -1
-3 29 22 88 38 88 18 0 50 64 50 98 0 45 -26 42 -33 -4z"/>
<path d="M2162 2568 c-7 -7 -12 -22 -12 -35 0 -20 -4 -22 -30 -17 -35 8 -63
-11 -55 -36 7 -22 -12 -37 -50 -42 -33 -3 -32 8 -18 -141 8 -74 19 -97 48 -97
17 0 92 37 99 49 4 6 20 11 35 11 15 0 36 9 46 20 16 18 16 21 1 44 -18 29
-13 52 15 59 27 7 25 53 -2 68 l-21 11 21 14 c29 21 27 58 -5 83 -30 24 -54
27 -72 9z"/>
<path d="M3335 2393 c-60 -12 -107 -37 -116 -60 -12 -33 -11 -137 2 -193 6
-25 12 -91 12 -147 2 -95 4 -104 27 -128 32 -31 102 -40 108 -13 2 12 -7 20
-36 28 -52 13 -63 41 -60 150 2 47 -3 121 -11 165 -21 130 -5 147 152 161 56
6 67 10 67 25 0 17 -8 19 -62 18 -35 -1 -72 -3 -83 -6z"/>
<path d="M395 2350 c-4 -6 -4 -28 0 -49 6 -37 4 -40 -36 -67 -43 -30 -68 -59
-58 -69 4 -3 29 10 56 28 90 61 163 58 270 -12 74 -48 107 -82 139 -143 28
-55 31 -83 8 -92 -22 -8 -20 -9 -56 23 -35 31 -79 43 -85 25 -2 -7 10 -17 27
-22 16 -6 30 -12 30 -14 0 -2 -26 -3 -57 -4 -32 0 -67 -3 -78 -5 -17 -3 -20 1
-17 32 3 33 -1 39 -34 58 -53 31 -86 36 -123 16 -45 -23 -66 -75 -50 -122 15
-47 87 -93 145 -93 45 0 81 -25 50 -35 -9 -3 -23 -7 -32 -10 -12 -4 -15 -13
-11 -35 4 -16 2 -32 -4 -36 -14 -8 -46 22 -53 50 -3 13 -29 39 -60 59 -41 28
-60 49 -81 92 -25 50 -27 63 -21 120 4 43 3 65 -4 65 -16 0 -30 -45 -30 -94 0
-86 38 -153 120 -212 27 -19 51 -45 54 -59 8 -30 83 -82 98 -67 5 5 11 28 11
51 1 22 7 41 12 41 18 1 66 50 60 60 -14 23 -84 50 -113 44 -23 -5 -33 -1 -46
17 -21 31 -20 51 5 83 14 17 30 26 50 26 31 0 39 -14 14 -24 -28 -10 -15 -31
39 -64 63 -37 87 -40 127 -11 21 15 37 19 59 14 42 -9 88 3 101 26 15 28 -12
101 -59 164 -39 53 -158 140 -204 150 -16 4 -36 20 -48 40 -33 53 -97 84 -115
55z"/>
<path d="M1125 2137 c-64 -17 -88 -30 -114 -63 -29 -37 -27 -92 5 -135 14 -19
34 -53 44 -76 16 -37 23 -43 50 -43 58 0 60 69 4 153 -14 21 -22 43 -17 47 31
27 130 38 193 20 65 -19 67 -24 28 -69 -91 -106 -68 -255 48 -311 46 -23 50
-23 163 -11 461 48 718 4 1164 -200 70 -33 139 -59 152 -59 27 0 45 25 45 64
0 45 40 133 80 179 42 47 127 97 167 97 23 0 23 -1 23 -117 0 -92 -4 -126 -18
-153 -20 -42 -75 -80 -112 -80 -35 0 -52 -21 -48 -57 2 -21 10 -30 33 -36 123
-37 136 -60 133 -232 l-3 -130 -25 4 c-64 9 -154 78 -192 148 -15 27 -31 77
-37 112 -11 68 -24 91 -51 91 -10 0 -71 -23 -136 -51 -162 -70 -357 -133 -511
-166 -113 -24 -150 -27 -313 -27 -128 -1 -225 5 -314 18 -153 21 -203 18 -250
-17 -85 -66 -90 -215 -8 -300 22 -24 24 -29 12 -37 -50 -32 -162 -37 -222 -9
-33 15 -35 29 -8 54 35 32 53 98 47 173 -9 100 -52 237 -103 325 -57 100 -62
124 -34 180 27 54 23 79 -14 92 -26 9 -31 6 -57 -24 -33 -40 -54 -117 -44
-163 4 -18 18 -53 32 -76 77 -134 123 -270 123 -362 0 -38 -6 -55 -36 -93 -48
-62 -49 -105 -3 -153 43 -44 119 -68 219 -68 160 0 255 99 185 195 -13 19 -32
45 -42 58 -22 30 -22 81 0 115 15 23 24 26 70 26 47 0 148 -13 204 -25 14 -3
33 -26 54 -65 60 -112 162 -190 288 -220 62 -15 162 -8 215 14 46 19 48 53 6
106 -30 38 -80 135 -80 157 0 6 24 16 53 22 28 6 75 16 102 22 l51 11 65 -65
c53 -53 76 -68 122 -82 77 -22 128 -17 145 15 13 25 11 134 -4 206 -6 30 -4
31 56 57 72 32 90 33 90 10 0 -10 13 -46 30 -81 58 -123 186 -215 318 -228 52
-6 66 -4 82 11 18 17 20 31 20 175 0 173 -11 228 -55 286 l-27 36 25 26 c56
61 62 84 65 273 4 212 3 215 -89 205 -153 -16 -296 -121 -345 -253 -9 -26 -21
-52 -25 -57 -4 -5 -37 4 -74 19 -65 28 -67 30 -61 59 4 17 9 72 12 122 7 91 6
92 -20 109 -22 15 -34 16 -87 6 -73 -12 -128 -43 -187 -104 l-44 -45 -71 18
c-40 10 -84 21 -99 24 -47 11 -33 62 44 163 29 38 39 59 36 80 -5 43 -75 65
-196 60 -82 -4 -101 -8 -167 -41 -81 -40 -137 -95 -183 -182 l-27 -49 -90 -12
c-146 -19 -172 -17 -200 13 -42 45 -33 95 31 167 45 49 46 93 4 141 -17 18
-49 41 -72 51 -56 22 -161 28 -223 12z m985 -201 c0 -2 -18 -42 -40 -90 l-40
-86 -72 1 c-40 0 -95 4 -121 7 l-48 7 30 41 c35 47 93 90 148 110 34 12 143
20 143 10z m-59 -1082 c46 -109 46 -104 1 -104 -78 0 -142 29 -209 96 -35 34
-63 67 -63 73 0 11 205 20 228 10 8 -3 27 -37 43 -75z"/>
<path d="M5 1813 l0 -145 40 -17 c73 -30 102 -50 154 -106 28 -31 51 -60 51
-64 0 -13 -43 -47 -147 -116 -94 -62 -103 -71 -103 -99 0 -20 8 -38 22 -50
l22 -19 -22 -18 c-24 -19 -30 -69 -8 -69 19 0 86 -105 86 -136 0 -31 -50 -84
-79 -84 -17 0 -21 -6 -21 -31 0 -31 1 -31 37 -24 54 10 89 39 109 90 21 56 14
94 -30 161 -30 44 -34 57 -29 93 4 26 1 52 -7 67 -7 13 -11 25 -9 27 2 2 26
19 53 37 l49 33 19 -26 c13 -18 33 -29 59 -33 35 -6 45 -14 78 -63 46 -67 78
-86 142 -85 77 1 126 45 136 124 5 34 -1 53 -32 114 -35 69 -41 106 -16 106 6
0 19 -17 30 -37 10 -21 28 -56 40 -78 38 -70 21 -176 -36 -227 -29 -26 -88
-48 -130 -48 -49 1 -114 30 -140 64 -25 32 -63 35 -63 6 0 -12 23 -55 51 -96
49 -73 59 -109 29 -109 -8 0 -36 32 -63 70 -65 96 -74 105 -92 99 -19 -8 -19
-41 0 -74 21 -37 18 -107 -6 -158 -25 -51 -81 -91 -138 -99 -38 -5 -41 -8 -41
-36 0 -30 0 -30 45 -24 25 4 62 15 83 26 62 32 98 79 127 166 6 18 7 18 15 4
5 -9 23 -22 40 -29 35 -15 84 0 100 31 13 23 13 65 0 88 -8 17 -5 18 35 13 73
-8 133 15 191 72 89 90 97 190 25 331 -23 44 -49 86 -58 93 -28 20 -72 14
-100 -14 -22 -22 -24 -31 -19 -67 4 -23 20 -66 36 -94 35 -62 38 -101 10 -131
-48 -51 -100 -39 -154 35 -31 43 -34 52 -29 96 5 41 3 52 -19 75 -13 15 -25
40 -26 56 -4 60 -114 173 -207 211 l-36 16 7 78 c7 84 -7 134 -44 157 -17 11
-18 4 -17 -133z"/>
<path d="M1345 1504 c-77 -52 -104 -112 -84 -186 15 -58 85 -128 127 -128 30
0 52 21 52 49 0 5 -20 30 -45 54 -25 25 -45 53 -45 63 0 10 20 36 45 60 48 45
56 71 27 97 -25 22 -33 22 -77 -9z"/>
<path d="M695 975 c-32 -12 -46 -12 -73 -2 -27 9 -38 9 -60 -4 -30 -16 -40
-52 -22 -74 16 -19 -17 -62 -43 -57 -43 9 -75 -60 -42 -88 20 -17 19 -40 -3
-40 -32 0 -62 -29 -62 -62 0 -35 56 -98 87 -98 24 0 63 27 63 45 0 25 21 27
46 4 33 -30 77 -18 82 24 4 36 53 64 72 42 36 -43 97 6 87 69 -4 23 1 47 16
77 11 23 23 67 25 97 4 45 1 58 -14 69 -23 17 -108 16 -159 -2z m-31 -100 c11
-20 39 -54 63 -76 l44 -40 -23 -19 c-20 -16 -25 -16 -43 -4 -39 27 -65 6 -27
-22 15 -12 15 -15 2 -24 -8 -5 -18 -10 -21 -10 -14 0 -61 45 -90 86 -25 36
-28 48 -19 59 17 20 27 19 35 -5 3 -11 13 -20 21 -20 17 0 18 11 2 44 -9 22
-8 29 7 46 24 27 27 26 49 -15z"/>
<path d="M170 678 c-11 -18 -20 -37 -20 -43 0 -6 -27 -10 -62 -10 -52 0 -63
-3 -66 -18 -3 -12 7 -22 32 -32 l36 -15 -26 -39 c-47 -71 -15 -97 54 -45 30
23 33 24 38 7 16 -49 27 -73 34 -73 17 0 32 32 33 70 2 32 5 39 17 34 8 -4 30
-9 48 -12 31 -4 33 -2 30 19 -2 16 -19 35 -49 53 l-45 30 4 53 c4 49 3 53 -17
53 -13 0 -29 -12 -41 -32z"/>
<path d="M2868 596 c-59 -16 -118 -56 -142 -96 -13 -22 -23 -29 -34 -25 -41
16 -132 27 -175 21 -94 -14 -134 -95 -108 -219 14 -67 50 -147 65 -147 6 0 18
5 26 10 13 8 12 17 -7 72 -45 128 -39 195 19 219 26 11 44 9 132 -12 l101 -25
-3 -34 c-2 -27 6 -49 37 -95 76 -115 90 -123 165 -93 28 11 53 15 58 10 5 -5
11 -32 15 -60 7 -64 4 -65 -103 -14 -51 25 -105 62 -152 106 -40 37 -78 66
-84 64 -7 -3 -16 -12 -22 -22 -9 -15 1 -29 65 -90 48 -45 102 -85 146 -107 41
-20 68 -40 65 -47 -3 -9 19 -12 83 -12 77 0 86 2 75 15 -11 13 -11 24 0 58 29
97 90 177 136 177 37 0 74 -45 74 -90 0 -56 -27 -75 -109 -75 -60 0 -66 -2
-69 -22 -3 -19 6 -24 69 -43 88 -27 172 -24 242 8 45 20 47 23 47 62 l0 40
-38 -25 c-20 -13 -52 -27 -69 -31 l-31 -6 14 42 c8 24 12 56 8 75 -6 36 -14
31 86 51 25 5 30 10 30 35 0 33 2 33 -89 18 -58 -10 -72 -9 -99 5 -67 35 -140
13 -189 -56 -14 -21 -28 -38 -32 -38 -3 0 -15 20 -25 43 -30 64 -107 132 -197
175 l-78 37 25 26 26 27 72 -73 c86 -88 107 -95 235 -71 49 9 116 16 149 16
55 0 62 3 86 31 14 17 26 36 26 44 0 7 7 16 16 19 19 7 44 -10 44 -29 0 -7 7
-18 15 -25 13 -11 15 -4 15 56 l0 69 -98 -3 c-90 -3 -106 0 -204 32 -118 40
-218 47 -310 22z m287 -81 c55 -19 117 -35 138 -35 20 0 37 -4 37 -9 0 -18
-30 -33 -54 -27 -14 3 -72 -3 -130 -14 -58 -11 -117 -18 -131 -14 -14 3 -48
32 -76 63 -48 54 -49 56 -27 63 61 17 144 8 243 -27z"/>
<path d="M1986 556 c-4 -19 -14 -44 -24 -56 -18 -22 -16 -22 -223 -18 -41 0
-99 -26 -99 -45 0 -7 20 -18 45 -25 30 -8 45 -17 45 -28 0 -16 -55 -74 -71
-74 -24 0 -5 -30 25 -40 19 -6 42 -22 50 -36 16 -23 15 -25 -16 -44 -18 -11
-39 -20 -45 -20 -26 0 -12 -28 18 -39 45 -15 93 -14 137 5 20 9 61 18 91 20
62 4 84 -9 108 -63 16 -40 26 -41 41 -8 15 33 15 35 -2 35 -8 0 -24 14 -36 31
-21 29 -22 31 -4 44 14 10 21 10 26 2 10 -17 22 0 23 30 0 23 6 28 35 34 59
12 88 70 57 113 -7 10 -36 24 -63 31 l-49 12 -1 54 c-1 94 -54 159 -68 85z"/>
<path d="M720 510 c0 -5 34 -33 76 -62 117 -81 121 -84 107 -99 -11 -11 -13
-10 -13 3 0 16 -31 44 -92 83 -24 15 -28 15 -28 2 0 -8 23 -29 50 -47 28 -18
49 -35 46 -37 -3 -3 -34 15 -70 40 -65 46 -106 65 -106 50 0 -4 9 -14 20 -21
26 -16 25 -30 -3 -65 l-22 -28 -23 21 c-30 28 -32 90 -2 90 11 0 20 5 20 10 0
17 -73 11 -109 -8 -63 -34 -90 -126 -57 -191 16 -30 100 -111 115 -111 11 0
51 53 51 69 0 6 -18 20 -40 31 -61 31 -73 67 -31 89 13 8 27 4 54 -15 31 -21
36 -29 31 -49 -7 -29 10 -34 26 -8 9 15 10 13 5 -9 -7 -37 22 -39 31 -3 5 19
13 25 34 25 15 0 38 8 51 18 13 11 37 22 52 26 15 4 30 13 34 21 13 34 -9 62
-99 123 -95 63 -108 70 -108 52z"/>
<path d="M180 363 c-19 -1 -68 -6 -107 -9 -69 -5 -73 -7 -73 -30 0 -29 -1 -29
189 -13 83 6 137 7 143 1 6 -6 4 -23 -5 -44 l-15 -35 -88 -7 c-74 -6 -90 -5
-100 8 -16 22 -41 20 -54 -4 -7 -13 -21 -20 -40 -20 -27 0 -30 -3 -30 -31 0
-23 4 -30 14 -26 8 3 54 9 103 12 48 3 105 8 126 10 39 5 47 -4 23 -28 -9 -9
-49 -16 -110 -21 -146 -10 -156 -13 -156 -48 0 -23 4 -29 16 -24 21 8 196 28
201 22 2 -2 -10 -20 -27 -40 l-32 -36 36 0 c33 0 40 6 86 68 53 71 110 194
110 236 0 14 -9 35 -20 46 -20 20 -78 24 -190 13z"/>
<path d="M1133 283 c-7 -3 -13 -20 -13 -39 0 -31 -3 -34 -30 -34 -20 0 -30 5
-30 15 0 8 -9 15 -20 15 -13 0 -20 -7 -20 -20 0 -12 -9 -24 -22 -29 -19 -7
-25 -4 -37 20 -17 34 -51 40 -51 8 0 -11 5 -29 10 -39 8 -16 5 -23 -16 -37
-15 -10 -40 -16 -56 -14 -30 3 -68 -22 -68 -44 0 -7 -9 -20 -20 -30 -25 -23
-26 -55 -2 -55 10 0 23 5 30 12 9 9 15 9 24 0 17 -17 68 -15 68 2 0 7 -11 21
-25 30 -35 23 -32 38 8 31 25 -5 37 -2 50 13 17 18 19 17 71 -35 51 -51 55
-53 107 -53 l54 1 -45 24 c-25 13 -63 42 -84 64 l-40 41 37 15 c112 46 294 -9
359 -110 21 -31 27 -35 70 -35 55 0 78 7 78 25 0 22 -19 28 -51 15 -26 -11
-31 -10 -44 6 -9 13 -10 23 -3 31 16 20 1 45 -22 38 -10 -3 -29 -1 -40 5 -19
10 -19 13 -5 33 34 48 6 88 -30 43 -17 -21 -28 -26 -44 -21 -11 3 -21 15 -21
25 0 27 -19 34 -40 15 -12 -11 -26 -14 -40 -10 -17 5 -20 12 -15 34 6 30 -10
52 -32 44z"/>
</g>
</svg>
