<svg width="416" height="823" viewBox="0 0 416 823" fill="none" xmlns="http://www.w3.org/2000/svg">
<path d="M702 823L-122 823L-122 -80L702 -80.0001L702 823Z" fill="#53A7D8"/>
<path d="M702 823L-122 823L-122 -80L702 -80.0001L702 823Z" fill="#005687"/>
<path d="M419.54 434.623C498.344 504.46 558.133 497.288 651.666 494.165C759.706 490.557 910.388 395.739 910.388 395.739C901.523 217.115 987.521 -14.9755 962.375 -14.9755C937.228 -14.9755 751.205 -114.616 710.906 -91.5288C670.606 -68.4413 586.718 -28.5658 556.714 9.94645C491.528 93.6182 449.274 46.3354 344.092 122.889C238.91 199.442 252.297 227.539 249.073 293.668C245.598 364.961 366.272 387.417 419.54 434.623Z" fill="#297BAB" fill-opacity="0.1"/>
<path fill-rule="evenodd" clip-rule="evenodd" d="M425.161 380.887C508.943 457.335 610.729 471.55 718.23 470.984C775.843 470.681 835.506 445.363 880.835 420.049C903.485 407.4 922.526 394.769 935.903 385.3C942.592 380.567 947.863 376.624 951.461 373.867C953.259 372.488 954.64 371.405 955.57 370.668C956.01 370.319 956.35 370.047 956.584 369.858C952.08 274.621 971.316 165.693 989.245 78.8163C992.78 61.6858 996.263 45.4191 999.504 30.2823C1004.5 6.939 1008.93 -13.7172 1012.08 -30.7102C1014.67 -44.7153 1016.4 -56.1771 1016.87 -64.567C1017.11 -68.7657 1017.02 -72.1454 1016.6 -74.6691C1016.19 -77.1164 1015.49 -78.5527 1014.66 -79.2457L1014.6 -79.265C1014.43 -79.313 1014.19 -79.3846 1013.86 -79.4785C1013.21 -79.6661 1012.24 -79.9431 1010.97 -80.2993C1008.44 -81.0117 1004.71 -82.0413 999.959 -83.3091C990.448 -85.8448 976.809 -89.3329 960.304 -93.1415C927.291 -100.759 882.825 -109.656 836.991 -114.778C791.141 -119.902 743.993 -121.241 705.588 -113.785C667.154 -106.324 637.76 -90.1207 626.906 -60.4052C615.797 -29.9936 599.111 -10.6989 578.549 2.41492C558.022 15.5065 533.685 22.4018 507.35 28.1232C499.531 29.8221 491.533 31.4185 483.4 33.042C436.668 42.3702 385.463 52.5914 337.864 88.2606C281.831 130.25 260.989 160.45 253.67 188.021C250.006 201.825 249.713 215.035 250.16 228.86C250.276 232.457 250.443 236.101 250.613 239.807C251.094 250.314 251.598 261.33 251.041 273.243C250.307 288.917 257.08 300.194 268.652 309.164C280.28 318.178 296.708 324.819 315.15 331.116C321.217 333.188 327.504 335.223 333.898 337.292C346.872 341.491 360.286 345.833 373.2 350.914C392.498 358.508 410.823 367.804 425.161 380.887ZM1013.07 -81.7856C1012.61 -81.9147 1012.09 -82.0614 1011.51 -82.2246C1008.97 -82.9393 1005.24 -83.9714 1000.47 -85.2416C990.944 -87.7822 977.284 -91.2759 960.754 -95.0903C927.697 -102.718 883.15 -111.632 837.213 -116.766C791.291 -121.898 743.907 -123.262 705.207 -115.749C666.534 -108.241 636.246 -91.805 625.027 -61.0915C614.063 -31.0742 597.65 -12.1389 577.474 0.728676C557.263 13.6185 533.222 20.4559 506.926 26.1688C499.157 27.8566 491.193 29.4451 483.08 31.0635C436.35 40.385 384.656 50.6966 336.665 86.6601C280.491 128.755 259.226 159.296 251.737 187.508C247.997 201.596 247.712 215.038 248.161 228.924C248.279 232.573 248.447 236.248 248.618 239.974C249.098 250.456 249.596 261.337 249.043 273.15C248.273 289.603 255.45 301.462 267.426 310.745C279.345 319.983 296.061 326.712 314.504 333.009C320.634 335.102 326.954 337.148 333.365 339.222C346.303 343.41 359.609 347.716 372.467 352.776C391.675 360.334 409.738 369.522 423.813 382.364C508.164 459.331 610.591 473.551 718.241 472.984C776.364 472.678 836.387 447.162 881.81 421.795C904.536 409.103 923.638 396.432 937.059 386.933C943.77 382.183 949.062 378.225 952.677 375.454C954.485 374.068 955.874 372.979 956.812 372.235C957.281 371.864 957.637 371.578 957.877 371.386C957.996 371.289 958.087 371.216 958.148 371.167L958.216 371.111L958.239 371.093C958.24 371.092 958.24 371.091 957.608 370.317L958.24 371.091L958.631 370.772L958.606 370.269C954.023 275.189 973.243 166.248 991.204 79.2205C994.73 62.1312 998.21 45.8803 1001.45 30.7468C1006.45 7.3757 1010.89 -13.3307 1014.04 -30.3455C1016.64 -44.3627 1018.39 -55.9298 1018.87 -64.4548C1019.11 -68.7135 1019.03 -72.2627 1018.57 -74.9994C1018.12 -77.6884 1017.27 -79.825 1015.72 -80.9586C1014.95 -81.5234 1014.05 -81.8033 1013.07 -81.8033L1013.07 -81.7856Z" fill="#7FBFE5" fill-opacity="0.2"/>
<path d="M122.167 426.436C214.041 486.23 122.167 553 122.167 553L-122 553L-122 263C-122 263 -122 295.887 -21.0225 299.873C79.9546 303.859 30.2936 366.643 122.167 426.436Z" fill="#7FBFE5" fill-opacity="0.05"/>
<path fill-rule="evenodd" clip-rule="evenodd" d="M122.33 553.5L-122.5 553.5L-122.5 263L-122 263C-121.5 263 -121.5 262.999 -121.5 262.999L-121.5 263L-121.5 263.012C-121.5 263.023 -121.499 263.043 -121.498 263.07C-121.496 263.105 -121.493 263.152 -121.488 263.212C-121.485 263.244 -121.482 263.28 -121.478 263.32C-121.455 263.544 -121.409 263.88 -121.314 264.315C-121.125 265.183 -120.744 266.443 -119.975 267.977C-118.438 271.04 -115.342 275.214 -109.093 279.53C-96.5847 288.172 -71.4516 297.382 -21.0028 299.373C4.28791 300.372 20.2223 305.053 31.3098 312.507C42.4019 319.963 48.5796 330.152 54.4345 342.005C55.7282 344.625 57.0073 347.327 58.3211 350.103C68.8874 372.43 81.6999 399.503 122.44 426.017C145.474 441.008 157.056 456.48 161.406 471.297C165.757 486.116 162.85 500.197 157.072 512.355C151.296 524.51 142.64 534.771 135.441 541.986C131.84 545.596 128.598 548.448 126.256 550.398C125.084 551.374 124.138 552.124 123.483 552.631C123.155 552.884 122.901 553.077 122.728 553.207C122.641 553.272 122.575 553.321 122.53 553.354L122.479 553.391L122.466 553.401L122.463 553.403C122.462 553.404 122.461 553.404 122.167 553L122.461 553.404L122.33 553.5ZM122.003 552.5C122.038 552.474 122.08 552.443 122.128 552.407C122.297 552.28 122.548 552.09 122.871 551.84C123.517 551.34 124.454 550.597 125.616 549.63C127.939 547.695 131.157 544.864 134.733 541.28C141.889 534.107 150.46 523.939 156.168 511.926C161.875 499.918 164.709 486.096 160.447 471.578C156.184 457.059 144.798 441.761 121.895 426.855C80.9122 400.183 67.9953 372.886 57.417 350.531C56.1044 347.757 54.8277 345.059 53.5379 342.448C47.7017 330.633 41.6193 320.642 30.7519 313.337C19.8801 306.028 4.15565 301.367 -21.0422 300.372C-71.5704 298.378 -96.9261 289.151 -109.662 280.353C-116.036 275.95 -119.25 271.652 -120.869 268.425C-121.114 267.936 -121.323 267.472 -121.5 267.036L-121.5 552.5L122.003 552.5Z" fill="#045A8B"/>
<path d="M215.615 482.943C374.258 602.846 66.0534 933 66.0534 933L-206 933L-206 173C-206 173 -205.999 221.154 -31.6372 229.148C142.725 237.141 56.9728 363.04 215.615 482.943Z" fill="#297BAB" fill-opacity="0.2"/>
<path fill-rule="evenodd" clip-rule="evenodd" d="M66.2705 933.5L-206.5 933.5L-206.5 173.006L-206.5 173.002L-206.5 173L-206 173C-205.699 173 -205.579 173 -205.532 172.999C-205.5 172.999 -205.5 172.999 -205.5 172.999L-205.5 173L-205.5 173.002L-205.5 173.021C-205.499 173.039 -205.498 173.069 -205.496 173.109C-205.491 173.191 -205.481 173.316 -205.461 173.483C-205.421 173.817 -205.34 174.317 -205.175 174.961C-204.846 176.249 -204.182 178.117 -202.844 180.396C-200.169 184.951 -194.786 191.164 -183.948 197.647C-162.257 210.622 -118.764 224.653 -31.6144 228.648C12.0338 230.649 39.4826 240.032 58.5534 254.92C77.6193 269.804 88.2449 290.14 98.3438 313.883C100.576 319.132 102.784 324.549 105.052 330.115C123.305 374.904 145.473 429.302 215.917 482.544C255.765 512.661 266.27 555.985 259.669 603.917C253.07 651.827 229.379 704.405 200.756 753.188C172.129 801.98 138.545 847.017 112.121 879.853C98.9082 896.272 87.4841 909.643 79.3626 918.909C75.3018 923.542 72.0666 927.149 69.8463 929.599C68.7361 930.823 67.8796 931.759 67.3005 932.388C67.0109 932.702 66.7907 932.941 66.6428 933.1L66.4754 933.28L66.4332 933.326L66.4225 933.337C66.42 933.34 66.4188 933.341 66.0533 933L66.4188 933.341L66.2705 933.5ZM65.8354 932.5L65.9094 932.42C66.0565 932.262 66.276 932.024 66.5647 931.711C67.1422 931.083 67.997 930.15 69.1054 928.927C71.3223 926.482 74.5538 922.879 78.6106 918.25C86.7243 908.993 98.1393 895.633 111.342 879.226C137.749 846.412 171.3 801.417 199.894 752.682C228.492 703.939 252.106 651.496 258.678 603.78C265.247 556.085 254.787 513.176 215.314 483.342C144.644 429.929 122.384 375.3 104.125 330.491C101.858 324.927 99.6524 319.515 97.4236 314.275C87.335 290.556 76.7906 270.425 57.9381 255.708C39.0905 240.995 11.8726 231.643 -31.6602 229.647C-118.872 225.649 -162.561 211.606 -184.461 198.505C-195.418 191.951 -200.933 185.626 -203.707 180.902C-204.516 179.523 -205.092 178.283 -205.5 177.215L-205.5 932.5L65.8354 932.5Z" fill="#045A8B"/>
<path d="M183.58 422.43C309.339 513.826 39.6625 763 39.6625 763L-176 763L-176 183.692C-176 183.692 24.5814 113.148 -37.7789 226.491C-100.139 339.834 57.821 331.035 183.58 422.43Z" fill="#297BAB" fill-opacity="0.05"/>
<path fill-rule="evenodd" clip-rule="evenodd" d="M40.0538 764L-177 764L-177 182.984L-176.332 182.749L-176 183.692C-176.332 182.749 -176.331 182.749 -176.329 182.748L-176.322 182.746L-176.184 182.697C-176.086 182.663 -175.942 182.613 -175.752 182.548C-175.372 182.417 -174.811 182.225 -174.081 181.98C-172.623 181.489 -170.493 180.785 -167.806 179.93C-162.433 178.219 -154.827 175.901 -145.896 173.476C-128.043 168.627 -104.851 163.333 -83.586 161.591C-72.9542 160.721 -62.7662 160.734 -53.9496 162.153C-45.1452 163.569 -37.6086 166.402 -32.387 171.254C-27.1247 176.144 -24.318 182.989 -24.8153 192.164C-25.3103 201.295 -29.0731 212.742 -36.9027 226.973C-52.4186 255.174 -54.0871 275.51 -46.2845 291.635C-38.4388 307.849 -20.8918 320.106 2.79832 331.794C17.2429 338.92 33.8399 345.778 51.7584 353.181C63.2268 357.919 75.2365 362.881 87.5698 368.28C119.117 382.091 152.644 398.711 184.168 421.622C200.056 433.168 209.733 447.238 214.461 463.018C219.183 478.782 218.949 496.19 215.126 514.407C207.487 550.821 185.474 590.669 159.6 627.563C133.713 664.475 103.898 698.517 80.5629 723.324C68.8937 735.729 58.8411 745.829 51.7048 752.829C48.1366 756.329 45.2972 759.054 43.3492 760.904C42.3751 761.83 41.6239 762.537 41.1158 763.012C40.8618 763.25 40.6685 763.43 40.5385 763.551L40.3914 763.688L40.354 763.723L40.3445 763.731C40.3423 763.733 40.3411 763.734 39.6625 763L40.3411 763.734L40.0538 764ZM39.2697 762C39.3915 761.887 39.5516 761.737 39.7487 761.553C40.2534 761.08 41.0012 760.376 41.9716 759.454C43.9125 757.61 46.7442 754.893 50.3043 751.401C57.4247 744.417 67.4581 734.336 79.1062 721.953C102.405 697.184 132.15 663.22 157.962 626.414C183.788 589.59 205.614 550.009 213.169 513.997C216.944 496.002 217.146 478.948 212.545 463.592C207.949 448.252 198.544 434.542 182.992 423.239C151.637 400.452 118.259 383.898 86.7678 370.112C74.5311 364.755 62.5583 359.808 51.0988 355.073C33.1194 347.644 16.4033 340.736 1.91343 333.588C-21.8114 321.883 -39.9218 309.376 -48.0848 292.506C-56.2909 275.547 -54.3193 254.479 -38.655 226.009C-30.8946 211.904 -27.2843 200.762 -26.8124 192.056C-26.3429 183.395 -28.9756 177.155 -33.7484 172.719C-38.5619 168.246 -45.656 165.513 -54.2673 164.127C-62.8666 162.744 -72.8793 162.721 -83.4227 163.585C-104.508 165.311 -127.564 170.569 -145.371 175.406C-154.27 177.823 -161.848 180.131 -167.2 181.835C-169.876 182.687 -171.995 183.388 -173.444 183.876C-174.106 184.098 -174.628 184.277 -175 184.404L-175 762L39.2697 762Z" fill="#7FBFE5" fill-opacity="0.2"/>
<path opacity="0.03" fill-rule="evenodd" clip-rule="evenodd" d="M-147.088 244.181C-176.195 240.258 -203.095 222.16 -242.775 191.66C-275.816 166.264 -291.439 125.011 -297.212 79.6342C-303.006 34.1025 -299.113 -17.2366 -291.546 -65.0753C-283.964 -113.009 -272.606 -157.95 -263.164 -190.866C-258.438 -207.337 -254.183 -220.831 -251.103 -230.221C-249.564 -234.917 -248.317 -238.589 -247.452 -241.096C-247.02 -242.35 -246.683 -243.313 -246.452 -243.967C-246.336 -244.294 -246.247 -244.544 -246.187 -244.715L-246.116 -244.911L-246.092 -244.98C-246.09 -244.984 -246.089 -244.987 -236.681 -241.599C-240.283 -250.928 -240.279 -250.929 -240.272 -250.932L-240.145 -250.981L-239.756 -251.13C-239.545 -251.211 -239.271 -251.316 -238.936 -251.444C-238.728 -251.523 -238.498 -251.611 -238.244 -251.707C-236.913 -252.214 -234.948 -252.958 -232.392 -253.915C-227.279 -255.83 -219.803 -258.598 -210.321 -262.023C-191.358 -268.872 -164.361 -278.351 -132.192 -288.882C-67.8995 -309.928 17.2536 -335.244 100.307 -352.143C182.918 -368.952 265.072 -377.797 322.557 -364.686C351.443 -358.098 375.619 -345.622 389.818 -324.268C404.146 -302.72 406.897 -274.296 397.553 -239.037C395.045 -229.573 392.778 -220.768 390.651 -212.503C383.602 -185.123 378.081 -163.677 370.366 -143.838C360.114 -117.479 346.029 -93.9042 319.859 -61.7439C296.43 -32.9534 271.492 -19.967 241.303 -6.99828C236.28 -4.84016 231.107 -2.68044 225.756 -0.445923C199.125 10.6743 168.058 23.6465 128.796 47.4868C82.6733 75.4928 57.0099 109.168 34.4301 140.372C33.1114 142.194 31.7992 144.016 30.49 145.833C9.7019 174.683 -10.329 202.483 -43.535 217.453C-88.0744 237.533 -117.823 248.125 -147.088 244.181ZM-236.681 -241.599L-240.283 -250.928L-244.542 -249.283L-246.089 -244.987L-236.681 -241.599ZM-228.775 -233.908C-229.596 -231.519 -230.726 -228.177 -232.099 -223.989C-235.112 -214.802 -239.292 -201.55 -243.939 -185.351C-253.241 -152.925 -264.378 -108.823 -271.792 -61.9506C-279.221 -14.9832 -282.826 34.2471 -277.372 77.1098C-271.899 120.128 -257.53 155.094 -230.587 175.803C-190.193 206.851 -167.398 221.263 -144.417 224.36C-121.594 227.436 -96.8616 219.556 -51.755 199.221C-23.5767 186.517 -6.51701 162.9 15.2479 132.77C16.231 131.409 17.2236 130.035 18.2273 128.647C41.131 96.9959 68.7188 60.5678 118.416 30.3916C159.062 5.71073 191.577 -7.85815 218.269 -18.9971C223.537 -21.1953 228.577 -23.2988 233.409 -25.3744C262.56 -37.8974 283.961 -49.3174 304.346 -74.3675C329.595 -105.395 342.428 -127.179 351.726 -151.087C358.972 -169.718 364.098 -189.62 371.056 -216.634C373.226 -225.059 375.574 -234.175 378.22 -244.16C386.675 -276.065 383.257 -298.014 373.163 -313.195C362.939 -328.571 344.439 -339.182 318.11 -345.187C265.162 -357.263 186.725 -349.317 104.295 -332.544C22.307 -315.862 -62.0307 -290.805 -125.969 -269.874C-157.915 -259.417 -184.719 -250.006 -203.527 -243.212C-212.93 -239.816 -220.332 -237.075 -225.377 -235.186C-226.665 -234.703 -227.8 -234.276 -228.775 -233.908Z" fill="#69B0DA"/>
</svg>
