<svg xmlns="http://www.w3.org/2000/svg" viewBox="0 0 382.43 380.24"><g id="Camada_2" data-name="Camada 2"><g id="Ícones"><path d="M0,77c.35-2.71.59-5.44,1.05-8.13,3.09-18,12-32.33,27.32-42.42,6.19-4.07,10.27-3,13.63,3.68C47.2,40.53,52.15,51,57.36,61.38c.76,1.51,2.37,2.6,3.58,3.89,1.12-1.25,2.57-2.33,3.3-3.77C69.37,51.24,74.32,40.88,79.4,30.6c3.65-7.38,7.43-8.55,14.29-4,33.5,22.47,35.87,66.72,10.74,92.36a61.11,61.11,0,0,1-31.15,17.51c-4.33,1-4.86,2.09-3.24,6.29,5,12.8,15.3,18.73,28,20.91,6.33,1.09,12.91.78,19.38.91s12.73-.08,19.09.06c3.62.08,5.24-1.57,5.55-5,.46-5.22,1.16-10.42,1.53-15.64,1.56-21.72,9.53-41.16,21.07-59.3a18.13,18.13,0,0,0,3.11-10.5c-.15-8.86,0-17.72-.05-26.58,0-13.3-4.4-24.9-13.51-34.68-3.49-3.75-3.74-8-.73-11s7.69-2.52,11.18,1.36c11.08,12.36,17.3,26.67,17.24,43.46,0,4.67,0,9.33,0,14l1.4.53c1.5-1.34,3-2.64,4.48-4,4.51-4.29,8.08-4.37,12.72-.21l5.52,5c.28-2.86.61-4.6.59-6.33-.11-10.12-.73-20.43,3.62-29.84,3.31-7.18,7.71-13.87,11.85-20.65a13.8,13.8,0,0,1,4.32-4.07,6.57,6.57,0,0,1,8.33.53c2.63,2.22,3,5.11,1.56,8.12a18.57,18.57,0,0,1-2.81,3.93c-8.35,9.47-12.74,20.42-12.68,33.11,0,9.6-.16,19.21.12,28.81a16.32,16.32,0,0,0,2.31,8c13.18,20.45,21.14,42.58,22.29,67,.15,3.24.59,6.46.85,9.69.22,2.69,1.6,4.13,4.32,4.12,11.1,0,22.25.58,33.29-.28,11.34-.89,21.7-4.95,28.61-14.84a43.55,43.55,0,0,0,3.67-7.32c1.34-3,.25-4.69-3-5.22A58.67,58.67,0,0,1,292,128.81c-31.37-19.11-38.9-60.34-15.9-89,4.07-5.07,9.39-9.27,14.63-13.22C296.78,22,301,23.3,304.28,30c4.83,9.72,9.53,19.5,14.29,29.25a16.86,16.86,0,0,0,1.54,3c.88,1.11,2,2.78,3,2.83s2.42-1.53,3-2.72c3.52-6.88,6.84-13.86,10.25-20.81,2-4.14,3.94-8.35,6.16-12.39,3-5.38,7-6.41,12.16-3.22,14.18,8.73,23.17,21.29,27.21,37.42a17.15,17.15,0,0,1,.43,2.58c.45,5.19-1.59,8.52-5.57,9.17-3.79.62-6.89-1.66-8.11-6.58-2.26-9-6.09-17.14-12.8-23.72-3-2.94-3.75-2.85-5.64.94-3.84,7.7-7.6,15.44-11.39,23.17-3.11,6.35-7.63,10.78-15.15,11.06S311.18,76.41,308,70c-4-8-7.84-16.15-11.82-24.2-1.83-3.71-3.18-3.86-6-.73-12.06,13.5-16.68,29-10.82,46.43,5.94,17.64,18.65,28.24,37.09,31.49a42.91,42.91,0,0,0,22.83-2.29c1.87-.7,3.68-1.55,5.54-2.26,4.26-1.62,7.85-.47,9.64,3s.57,7.35-3.61,9.36a119.43,119.43,0,0,1-14.67,5.46c-2.44.79-4.25,1.72-4.83,4.49-5.19,24.82-26.62,36.64-47.83,38-9.69.61-19.43.57-29.15.8-5.09.11-5.42.59-5.92,5.48a46.41,46.41,0,0,1-2.13,10.19c-1.11,3.24-.48,4.57,3,4.9,12.85,1.24,24.58,5.59,34.67,13.68a125.45,125.45,0,0,1,12.38,11.92,6.52,6.52,0,0,1,.05,9.43,7,7,0,0,1-9.54.16c-3.6-3.07-6.88-6.52-10.54-9.51a51.5,51.5,0,0,0-28.74-11.52c-3.32-.29-4,.52-2.78,3.53,2.82,6.86,2.78,13.86,1.22,21-.69,3.16-1.61,6.28-2.28,9.45a25.45,25.45,0,0,1-8.1,14.42c-1.68,1.48-2.41,3-1.41,5.24,2.23,5,2.12,10.28.83,15.42-1.89,7.6-4.29,15.08-6.2,22.67-.27,1.08.7,3,1.69,3.76,6.6,4.87,13.84,9,20,14.35a70.58,70.58,0,0,1,22.2,36.13c2.65,10.36-4.83,19.71-15.53,19.95a66.65,66.65,0,0,1-34-8.78c-3-1.66-4.91-1.56-7.55.73a32.1,32.1,0,0,1-43.3-.48c-2.11-1.93-3.84-2.16-6.28-.77-10.15,5.76-21,9.23-32.76,9.31-13.79.1-21.26-10.34-16.7-23.44,5.89-16.9,16.07-30.59,31-40.64a89,89,0,0,1,7.94-4.93c2.5-1.34,2.54-2.7,1.77-5.41-2.55-9.08-4.86-18.27-6.56-27.54-.6-3.22.5-6.92,1.45-10.22.71-2.47.68-4.26-1.26-6-4.12-3.77-6.2-8.65-7.33-14-.69-3.29-1.39-6.59-2.21-9.86a30.81,30.81,0,0,1,1.44-19.78c1.51-3.64.84-4.35-3.18-4a53.4,53.4,0,0,0-33.43,15.91c-1.68,1.67-3.3,3.42-5.11,4.94a7.1,7.1,0,0,1-9.82-.15c-2.69-2.72-2.5-6.31.41-9.69C104.05,211,119.32,201.93,138.5,200c5-.49,4.73-.6,3.37-5.21a43.91,43.91,0,0,1-1.8-10.23c-.17-3.66-1.58-5.07-5.23-5.11-10.71-.11-21.46,0-32.14-.8-18.1-1.32-33.34-8.29-42.93-24.59A40.39,40.39,0,0,1,55.4,143c-.93-3.93-2.68-5.78-6.75-6.65a61.65,61.65,0,0,1-47.35-49C.74,84.2.43,81,0,77.78ZM194,199.82q10.86,0,21.71,0c13,0,19.58-7.59,18.14-20.68-.7-6.32-1.19-12.66-1.82-19-1.36-13.75-2-27.59-6.92-40.79-6.34-17.07-15.21-32.47-28-45.52-2.13-2.16-3.85-2.76-6.17-.16-18.55,20.71-31,44.2-33.35,72.37-1,11.43-2.3,22.83-3.29,34.25-1,11.93,5.84,19.45,17.65,19.51C179.32,199.85,186.68,199.82,194,199.82ZM57.37,123.53c16.45,0,27.71-4.68,36.62-13.93,17.49-18.16,17.41-45.76.31-64.35-3.34-3.63-4.44-3.53-6.62.89-4,8-7.78,16.17-11.81,24.18-3.1,6.16-8,9.79-15.16,9.64s-11.83-3.9-14.89-10.1Q39.94,58,34,46.11c-2.17-4.3-2.9-4.38-6.31-.84C15.44,57.94,11.18,78.58,17.87,93.9,26,112.56,40.42,122.39,57.37,123.53ZM193.5,254.45v0c8.48,0,17,.12,25.44,0,6.18-.12,9.12-2.55,10.71-8.49q1.56-5.77,2.71-11.66c2.22-11.31-4.56-19.87-16.08-20.18-7.1-.19-14.22-.06-21.33-.06-7.86,0-15.72-.13-23.57.07-11,.29-17.36,7.39-16.32,18.29a94.39,94.39,0,0,0,2.46,12.84c1.61,6.71,4.74,9.17,11.65,9.24C177.28,254.51,185.39,254.45,193.5,254.45Zm-.93,48.63v0c5.23,0,10.47.14,15.69,0q7.16-.24,8.92-6.57c1.53-5.52,3-11.07,4.08-16.69,1.39-7.35-1.65-11-9.11-11.06q-19.05-.17-38.1,0c-6.93.06-10.19,4.07-9,11,.92,5.27,2.06,10.51,3.35,15.7,1.34,5.37,4.07,7.5,9.59,7.66C182.86,303.19,187.72,303.08,192.57,303.08Zm1.8,14.26h-8.24c-2.47,0-3.9,1.2-4.46,3.64-1.74,7.66-3.76,15.27-5.27,23-1.57,8,1.35,14.51,8,19.13a17.52,17.52,0,0,0,20.08-.41c6.43-4.68,8.95-11.2,7.4-19.06q-1.53-7.71-3.52-15.32C205.25,316.25,208.05,317.34,194.37,317.34Zm-28,5.34c-1-.08-1.33-.2-1.52-.11-17,8-28.58,20.91-34.72,38.63-1.16,3.36.2,4.91,4,4.7a52.59,52.59,0,0,0,25.49-7.72c1.23-.78,2.58-2.87,2.4-4.15-1.27-9.08,1.56-17.55,3.44-26.16C165.78,326.22,166,324.55,166.33,322.68Zm56.79-.65-1.05.94c.36,2,.69,4,1.1,6,1.68,8.14,4.54,16.07,3.24,24.68-.22,1.47,1.61,3.92,3.14,4.86a52.26,52.26,0,0,0,22.58,7.3c6.31.61,7.64-1.08,5.36-6.91-4.75-12.12-12.17-22.28-22.85-29.85C231,326.49,227,324.37,223.12,322Z"/><path d="M377.71,101.43a6.89,6.89,0,0,1-6.89,6.87,6.81,6.81,0,0,1-6.85-6.89,7,7,0,0,1,6.62-6.78C374.14,94.58,377.71,98,377.71,101.43Z"/><path d="M180.61,127.76a6.72,6.72,0,0,1-6.71-6.57c0-3.55,3.38-7,6.85-7s6.88,3.44,6.9,7A6.73,6.73,0,0,1,180.61,127.76Z"/><path d="M201.48,120.85a6.74,6.74,0,0,1,7.05-6.66,6.67,6.67,0,0,1,6.17,7.11c-.11,4-2.76,6.56-6.65,6.5A6.3,6.3,0,0,1,201.48,120.85Z"/></g></g></svg>