<svg xmlns="http://www.w3.org/2000/svg" viewBox="0 0 1085.36 1082.36"><g id="Camada_2" data-name="Camada 2"><g id="Camada_1-2" data-name="Camada 1"><g opacity="0.15"><path d="M577.7,603.1a159.9,159.9,0,0,1-4.54,18.61,228.35,228.35,0,0,1-51.71,88.5C495.15,738.37,462,760.12,425.3,772c-64.61,21-141.37,14.75-192.5,59.48-23.86,20.88-38.31,50.06-56.33,76.26a195.1,195.1,0,0,1-21.42,26.56c-35.68,36.21-92.27,49.74-140.71,34.85q-6-1.83-11.74-4.24V368.26c1-.57,1.83-1,2.5-1.4a98.88,98.88,0,0,1,10.75-5c13.46-5.35,25.5-6.72,34.13-7.47,2.07-.18,4.13-.35,6.16-.5,73.5-5.64,118.9,3.83,118.9,3.83,31.08,6.48,46,5.95,165.09,61.24l.08,0q89.34,41.44,178.68,82.93c16.8,7.79,34.22,16.06,45.84,30.49C580.32,551.74,582.22,578.11,577.7,603.1Z" fill="#297bab"/></g><path d="M1080.1,321.93v54.81c0,2.22.45,5,0,7.18-.94,4.47-3.85,9.32-5.78,13.55-2.61,5.73-5.43,11.36-8.38,16.91-10.89,20.48-23.6,39.92-34.86,60.19-20,36.08-36.74,79.3-24.67,120.83,10.82,37.21,41.83,63.23,67.21,90.67q2.43,2.63,4.82,5.3c.38.43,2.43,3.28,1.66,1a4.94,4.94,0,0,1,0,.86,41.29,41.29,0,0,1,0,4.45V897.46c0,1.06.33,2.78,0,3.8-.27.8,0-.22-1.74,1.33-4.19,3.68-7.89,7.87-12.23,11.44-14.91,12.26-32.56,21.08-51,26.63a168.75,168.75,0,0,1-35.37,6.56c-16,1.25-33.29,1.29-48.61-4-5.5-1.9-11.77-5-14.38-10.51-2-4.17-.72-8.28,1.08-12.26,2.48-5.51,5.47-10.76,7.79-16.35a111.46,111.46,0,0,0,7.1-26.05c3-19.68,3.17-39.86-9.28-56.58-10.63-14.28-27.13-22.87-42.54-31a316.38,316.38,0,0,0-54-22.67c-16.52-5.11-32.94-9.81-48.73-17C754.3,739.93,729,725,712.11,704.39c-22.41-27.33-26.19-64.5-24.52-98.5,1.21-24.47,12.28-48.84,22.18-70.77,18-39.78,39.27-78.35,61.9-115.65,19.14-31.56,40.44-62.57,68.28-87.14a206.47,206.47,0,0,1,81.16-43.8c39.9-11.12,81-7.27,119,8.53,14.86,6.18,31.25,11.93,40.29,26.13,1.72,2.7,6,.2,4.32-2.53-9.2-14.43-24.6-20.54-39.77-26.94-17.41-7.36-35.26-13-54.07-15.39-35.47-4.51-70.63,2.57-103,17.07-71.62,32.07-112.13,104.24-148.32,170-19.14,34.74-38.32,70.59-50.42,108.51-7.38,23.15-8.5,47-5.52,71.12,3.38,27.19,13.84,53.53,34.09,72.42C745,742.84,780,759.66,815.61,769.76a316.47,316.47,0,0,1,47,17c9.81,4.55,19.44,9.75,28.82,15.13,8.16,4.68,16.2,9.83,22.85,16.55C931,835.32,931.19,858,927.4,880a104.59,104.59,0,0,1-8.07,26.17c-2.36,5.07-5.29,9.94-7.24,15.19-10.55,28.44,38,31.62,54.64,31.48,29.49-.26,59.06-7.41,84.6-22.41a139.52,139.52,0,0,0,25.52-19.17c2.87-2.73,7.73-6.09,8.25-10.17s0-8.45,0-12.49v-187c0-2.84.6-6.44,0-9.24-.49-2.29-2.65-4-4.18-5.69-3.56-4-7.21-7.83-10.89-11.68-7-7.3-14.1-14.48-21-21.89-13.68-14.72-26.84-30.63-34.49-49.43-8.55-21-8.79-44-3.86-65.88,10.4-46.16,40.46-83.74,61.75-125,2.59-5,5.06-10.13,7.35-15.31,1.8-4.09,4.7-9,5.3-13.43a51.75,51.75,0,0,0,0-6.59V321.93C1085.1,318.71,1080.1,318.7,1080.1,321.93Z" fill="#4b9ccb"/><g opacity="0.51"><path d="M538.33,759.09c-9.69,10.52-20.52,19.8-33,26.84-10.49,5.92-21.76,10.16-33.06,14.24-13.33,4.81-26.64,9.64-39.54,15.53a333.37,333.37,0,0,0-50.06,28.63,295.72,295.72,0,0,0-33.06,25.83c-7.25,6.68-14,13.92-20.81,21-24.5,25.34-52.31,47.07-80.6,68-25.57,18.9-52.38,37.47-82.8,47.6-31.36,10.43-65.44,12.08-96.87,1-16.4-5.81-31.62-15.22-43.27-28.22a90.52,90.52,0,0,1-15-23.17C8,951.27,5.1,945.44,5.1,939.8V880.36A43,43,0,0,1,7,868.84a229.42,229.42,0,0,1,11.56-33.08c8.62-20,19.22-39,29.39-58.16S68,738.79,75.13,718.15A270.25,270.25,0,0,0,88.43,658a274.21,274.21,0,0,0-15.54-124.3c-15.09-40.33-41.84-76-52.37-118.13-5.49-21.94-6.12-46,1.65-67.47A71.46,71.46,0,0,1,63,305.81c15.89-6.37,33.3-7.72,50.26-7a249.45,249.45,0,0,1,50.65,7.23c36.2,9.23,67.62,28.74,97.73,50.21,29.56,21.08,57.52,44.3,82.72,70.47,22.66,23.53,42.85,49.41,67.17,71.3,29.71,26.73,64.48,47,100,64.9,12.9,6.49,26.13,12.48,38.65,19.7,9.34,5.39,18.33,11.77,24.63,20.67,23.32,32.92,11.64,78.37-5.45,111.16a213,213,0,0,1-31,44.62c-2.16,2.38,1.37,5.92,3.53,3.53C567,735,587.15,699.39,591.81,661.9c2.3-18.51.2-38-8.69-54.65-5.59-10.46-14.09-18.53-23.93-25-11.71-7.65-24.58-13.47-37.09-19.65-18.14-9-36-18.42-53.35-28.89a355.35,355.35,0,0,1-51.11-36.92,427.75,427.75,0,0,1-35.25-35.62c-22.57-25.15-45-50.09-70.67-72.17-28.71-24.7-59.87-48.32-93.19-66.49C186,304.8,150.2,295.43,113.22,293.83c-35.45-1.55-73.11,8.26-91,41.82C1.18,375.24,13.92,421.76,32,459.73c9.52,20,20.59,39.33,29.67,59.59A266.85,266.85,0,0,1,81.18,583.8a270.47,270.47,0,0,1-10.3,131.37C56.24,758.35,29.61,796,12.17,838A223,223,0,0,0,1.44,870.21,38.69,38.69,0,0,0,.1,880.36v32.29c0,9.34-.22,18.7,0,28,.13,5.63,2.93,11.47,5.14,16.57A95.15,95.15,0,0,0,19.92,981c22.3,26.43,57.63,38.68,91.46,39.45,30.46.7,60.42-8.36,87.1-22.66,15.21-8.16,29.56-17.86,43.56-27.94,17.86-12.86,35.43-26.23,52.4-40.24a447.92,447.92,0,0,0,34.15-31c7.28-7.39,14.25-15.07,21.75-22.22C374.82,853,404.57,834,435.25,820c24.34-11.12,51.15-17.2,74.34-30.77a141.13,141.13,0,0,0,32.27-26.63C544,760.26,540.51,756.71,538.33,759.09Z" fill="#4b9ccb"/></g><g opacity="0.21"><path d="M1082.6,308.76v48.89c-5.23,21-14.55,41.71-17.2,63a88.22,88.22,0,0,0-.71,12.8c.39,19.14,7.66,37.15,17.91,54.07V690.92l-1.33-.12c-8.49-.8-17-2.24-25.28-3.69l-196.63-34.5c-26-4.56-54.84-10.79-69.17-30.91-12.91-18.12-9.94-42.36-21.06-61.43s-33.43-28.83-56-38.35c-8.15-3.45-16.35-6.88-24.08-10.75-12.85-6.41-24.41-14-32.39-24.89-15.3-20.83-12.93-49.22-.6-71.6,7.59-13.77,22.39-28.39,54.34-56,39.66-34.28,59.49-51.42,59.88-51.69,10.77-7.56,55.94-38.24,126.11-54.62,51.26-12,80.73-16.87,116.42-5.89a118.43,118.43,0,0,1,46.85,27.25C1070.18,283.8,1078.25,295.73,1082.6,308.76Z" fill="#297bab"/></g><g opacity="0.15"><path d="M1082.6,275.52V912.69a103.88,103.88,0,0,1-14,2.53c-16.68,1.85-33.68-.43-48.82-7.59-37.71-17.83-58-60.57-94.83-79.3-1.49-.77-3-1.48-4.55-2.16-21.13-9.24-45.09-9.32-67.88-13.32-34-6-52.61-31-56.46-34.6-10.3-9.55-16.39-17.76-21.24-26.24-9.74-17.06-14.45-35.23-38.23-67.65-26.57-36.22-34-31.65-46.24-56.63-.81-1.66-3-5.68-5.56-11.51-7.9-18-19.3-53.19-4.23-88.68a118.87,118.87,0,0,1,8.51-16.37c11-17.71,28.25-36.4,58.19-65.95,3.32-3.27,8.12-8,14.35-13.74a827.26,827.26,0,0,1,92-73.52c11-7.6,21.52-14.9,34.58-22.74,23.18-13.93,65.61-39.41,112.93-52.77,19-5.39,38.88-8.81,58.57-8.72A152.61,152.61,0,0,1,1082.6,275.52Z" fill="#297bab"/></g><g opacity="0.09"><path d="M521.45,710.21c-.7,17.22-5.72,33.73-17.3,47.11-13.36,15.45-33.41,24.3-52.74,32.65L245.7,878.79c-27.55,11.89-50.25,21.37-69.23,29C101,938,84.3,938.79,55.71,944.34c0,0-18.32,3.55-50.82,5.2l-2.29.11V305.12a150.59,150.59,0,0,1,29,20.83c.4.36.78.73,1.17,1.09a206.64,206.64,0,0,1,23.42,26.81c21.31,28.45,38.06,60.48,66.05,83.26C181,485,269.35,478.31,343.7,500.78c80,24.16,145.51,86.15,170.16,160.92C519,677.16,522.12,694,521.45,710.21Z" fill="#297bab"/></g><g opacity="0.18"><path d="M822.9,187.35C811.45,206.88,789.79,218,769.37,228L589.83,316.19c-23.73,11.65-50.81,23.58-75.06,15-21.86-7.71-34.85-30.11-55.86-39.69a62.41,62.41,0,0,0-23.05-5.34c-36.75-1.82-78.34,21.6-114,9.56a59.37,59.37,0,0,1-20.37-11.92c-13.73-12.13-22.52-30.19-25.53-48.67-2.65-16.25-.06-37.54,8-80.14C294,102.15,299.05,75.7,299.19,75.24c2.68-9,11.63-37.49,32.35-72.88H612.1Q613.7,4.7,615.44,7c20.92,27,55.41,39.63,88.71,49.21S772.49,74,799.06,95.6a89,89,0,0,1,22.72,28C832.19,143.72,834.55,167.49,822.9,187.35Z" fill="#297bab"/></g><g opacity="0.51"><path d="M819.61,123c-4.92,26.68-27.71,43.76-49.63,56.86-24.29,14.53-49.45,27.73-74.19,41.48L618,264.58l-38.45,21.36c-12.11,6.73-24.27,13.56-37.18,18.66-11.23,4.44-23.94,8.28-36.11,6.09-10.45-1.88-18.47-8.63-26.65-14.9-8-6.13-16.34-11-26.52-12.22-11.81-1.45-23.85,1.06-35.19,4.22-22,6.12-43.24,16.13-66,19.43-10.79,1.57-22.37,1.32-32.06-4.25-10.26-5.9-16.4-16.65-18.61-28.05-3.07-15.9,1.84-31.77,6.62-46.81,7.5-23.57,16.37-46.73,24.78-70,3.64-10.05,6.91-20.33,11-30.22,3.34-8.17,8.93-17.75,13.69-25.93a449.62,449.62,0,0,1,35.17-51.58q13.14-16.73,27.66-32.3C424,14,427.81,8.45,432.36,5.15c.63-.45-1-.19.5-.55,1.82-.44,4.29,0,6.16,0h193.3L630.15,3c4.52,14.51,11.64,27.15,24.46,35.79,12.66,8.55,28,12.61,42.84,15.31,17.08,3.11,34.43,4.27,51.6,6.72,16.64,2.38,33.94,5.75,48.5,14.59A47,47,0,0,1,819.61,123c-.43,2.83,3.9,4,4.33,1.19,2.25-14.69-1.14-29.48-10.59-41.11-9.73-12-24.76-18.21-39.31-22-33.56-8.83-69.74-5.83-102.36-18.56-8.4-3.28-16.49-7.82-22.86-14.28-7.24-7.33-11.31-16.75-14.34-26.45A2.29,2.29,0,0,0,632.32.11H435.55a17.52,17.52,0,0,0-3.62,0C428.4.91,424.45,7,422,9.5c-5.25,5.56-10.44,11.17-15.48,16.92a486.58,486.58,0,0,0-43.85,58.09,370,370,0,0,0-21.15,37.29c-3.18,6.52-5.39,13.45-7.86,20.27-8,22.19-16.2,44.33-24,66.59-5.77,16.46-12.46,33.76-13.79,51.32-1.47,19.33,6.8,40.49,25.36,48.71,19.92,8.84,43.58,1.17,63-5.24,11.59-3.82,23.05-8.06,34.81-11.33,12.22-3.4,25.64-6.32,38.22-3.25,10.76,2.62,18.8,10.15,27.48,16.53,8.35,6.14,17.48,10.23,28,10.36,25.24.3,49.52-15.09,70.78-26.91q40.2-22.34,80.39-44.68l80.4-44.68c21.94-12.19,45.8-23.81,62.86-42.76,8.34-9.26,14.44-20.2,16.71-32.53C824.46,121.38,820.13,120.16,819.61,123Z" fill="#4b9ccb"/></g><rect x="2.6" y="2.36" width="1080" height="1080" fill="none"/></g></g></svg>