<svg xmlns="http://www.w3.org/2000/svg" viewBox="0 0 381.51 287.24"><g id="Camada_2" data-name="Camada 2"><g id="Ícones"><path d="M166.57,166.93h6c3.33,0,6.25.82,7.74,4.12s.36,6.17-2,8.54c-5.39,5.49-6.89,12.17-5.33,19.35,1.18,5.43,2.67,11,5.28,15.88,12.52,23.2,30.64,41,53.65,53.82,12.11,6.75,23.51,5.86,33.69-3.74,4.34-4.08,8.72-8.37,11.94-13.31,5.77-8.84,10.58-18.31,16-27.39,1.74-2.91,3.72-6,6.37-8,15.49-11.62,30.52-23.74,43.78-37.92,8.39-8.95,15.91-18.53,21.62-29.47a11,11,0,0,0,0-11c-5.88-11.29-13.78-21.07-22.43-30.27-12.61-13.4-26.78-25-41.66-35.78a25.92,25.92,0,0,1-8.52-10.59c-6.22-13.41-13.68-26.09-24.44-36.47a53.24,53.24,0,0,0-7.59-6c-7.26-4.82-15.06-5.85-23.15-2.35-4.33,1.88-8.5,4.15-12.69,6.36-4.61,2.42-8.43,1.89-10.5-1.61-2.18-3.68-1-8,3.36-10.44a130.7,130.7,0,0,1,16.4-8.1c14.7-5.62,27.67-1.41,39.41,8,12.74,10.21,21.42,23.63,28.57,38a45.88,45.88,0,0,0,14.12,16.88c19.25,14.35,37.25,30.15,51.41,49.76,4.29,5.94,7.77,12.47,11.38,18.87,3.46,6.11,3.11,12.3.08,18.62-6.55,13.67-15.71,25.45-26,36.39-13,13.85-27.73,25.81-43,37.14a17,17,0,0,0-4.8,6c-5.58,11.33-11.53,22.42-19.63,32.19-6.16,7.43-12.93,14.18-21.69,18.62a36.53,36.53,0,0,1-31.12,1.47c-12.5-4.88-23.32-12.43-33.26-21.23-13.92-12.32-26.22-26-34.45-42.91-5.45-11.2-8.88-22.8-5.81-35.42.72-2.93-1-3.51-3.35-4.16-5.61-1.57-11.33-3-16.66-5.28-9.39-4-15.57-11.51-19.47-20.79-1.33-3.16-3.18-4.41-6.52-4.21-22.52,1.4-44.6,4.79-65.79,13-5.34,2.07-9.1,4.79-10,10.79a31.51,31.51,0,0,1-2.17,7.15c-1.19,3-3.31,5-6.76,5a6.54,6.54,0,0,1-6.48-4.79c-1.17-3.48-2.8-2.77-4.87-1-1.8,1.54-3.64,3-5.44,4.58-3.56,3.06-7.14,3.2-10,.36s-2.57-7,.58-10.36c7.57-8,16.82-13.67,26.49-18.67,20.66-10.7,42.86-16.19,65.85-18.74,6.44-.71,12.91-1.13,19.38-1.54,2.47-.16,4.23-.9,5.24-3.38,5.86-14.49,16.9-22.72,31.9-26.08a41.81,41.81,0,0,1,4.4-.89c3.2-.34,4.18-1.8,3.46-5-3.06-13.92,1.34-26.37,8.13-38.19,2.38-4.15,6.1-5.12,9.47-3.19,3.56,2,4.7,5.8,2.66,10.07-3.07,6.42-6.32,12.73-6.82,20-.44,6.49.56,12.38,5.41,17.23,2.41,2.4,3.71,5.41,2.15,8.86s-4.67,3.93-8.12,4.09a186.11,186.11,0,0,0-20.05,1.54c-6.24,1-11.26,4.65-15.23,9.53-.94,1.15-1.25,2.81-1.86,4.24,1.38.38,2.75,1.09,4.12,1.1,11.11.1,22.21,0,33.31.11a31.78,31.78,0,0,1,6.68.64c4,.9,5.8,3.32,5.62,7.18-.17,3.61-2.1,5.86-6.08,6.42-2.31.32-4.71-.06-7.07-.07-11,0-21.95-.07-32.93,0-1.23,0-2.46.76-3.69,1.17.48,1.23.7,2.67,1.48,3.66a28.15,28.15,0,0,0,16.79,10.49c4.38.9,8.88,1.19,13.32,1.76Z"/><path d="M228.42,207.38a54,54,0,0,1-5.86-.45c-3.77-.69-6-3.22-6-6.59a6.81,6.81,0,0,1,6.13-6.91c4.19-.56,8.45-.64,12.66-1,15.38-1.36,29.91-5.36,43.07-13.74,4.38-2.79,8.5-2.06,10.77,1.63s.92,7.66-3.46,10.46c-14.39,9.18-30.29,13.9-47.15,15.7C235.12,206.84,231.64,207.1,228.42,207.38Z"/><path d="M290.18,102.9c.1,4.86-4,8.26-8.26,7.22a12.9,12.9,0,0,1-3.75-1.63c-15.43-9.8-32.62-13.32-50.54-14.25a31.1,31.1,0,0,1-5.57-.47c-3.41-.78-5.54-3-5.45-6.6s2.08-5.79,5.5-6.67a13.3,13.3,0,0,1,3.33-.38c21.22.21,41.3,4.76,59.58,16C287.78,97.78,290.05,99.81,290.18,102.9Z"/><path d="M233.13,136.45c6.47,0,13-.28,19.43.09,5.43.31,7.81,2.9,7.76,7.23,0,3.24-1.49,5.59-4.69,6.38a30.59,30.59,0,0,1-7,.9c-10.59.1-21.19,0-31.78,0h-1.12c-7.33-.22-10.51-2.43-10.56-7.32s3.12-7.28,10.38-7.48c3-.09,6,0,9,0h8.6Z"/><path d="M194.17,31.84a7.21,7.21,0,0,1,6.77,7.06,6.81,6.81,0,0,1-13.62-.1A7.11,7.11,0,0,1,194.17,31.84Z"/><path d="M336.67,129c-.15,4.13-2.86,6.54-7.1,6.3-4-.22-6.27-2.82-6.13-6.9s2.86-6.54,7.1-6.3C334.5,122.32,336.81,124.92,336.67,129Z"/><path d="M287.28,137.06c4.21-.05,6.76,2.49,6.72,6.69,0,4-2.47,6.49-6.51,6.53-4.2.05-6.76-2.5-6.72-6.69C280.81,139.55,283.25,137.1,287.28,137.06Z"/><path d="M336.67,158.54c.05,4.2-2.5,6.75-6.7,6.72-4,0-6.48-2.48-6.53-6.51-.05-4.2,2.5-6.76,6.7-6.72C334.18,152.06,336.62,154.5,336.67,158.54Z"/></g></g></svg>