<svg xmlns="http://www.w3.org/2000/svg" viewBox="0 0 861.01 87.02"><g id="Camada_2" data-name="Camada 2"><g id="Camada_3" data-name="Camada 3"><path d="M39,87a299.76,299.76,0,0,0,80-10c27.4-7.28,28.59-11.84,58-22,13.82-4.77,53.26-17.48,99-20,26.51-1.46,25.61,2.13,105,10,43.47,4.31,65.3,6.48,95,7,31.9.56,36.59-1.41,94-4,66.07-3,99.1-4.47,134-2,30,2.12,82.25,7.76,106,13,2.18.48,11,2.47,23,4a254.13,254.13,0,0,0,28,2V0H0V84A296.54,296.54,0,0,0,39,87Z" fill="#297bab" opacity="0.84"/><path d="M40,51A348.66,348.66,0,0,0,166,73c8.65-.12,17.81-.9,20.67-1.11A546.49,546.49,0,0,0,247,64c36.09-6.68,42.08-10.74,72-17a652,652,0,0,1,74-10c33.61-2.67,59.61-.57,203,22,42.64,6.71,77.48,12.25,113,13,15.41.33,33.93.63,57-3,17.92-2.82,38.38-7.16,38.38-7.16C815.14,59.56,819.7,58.3,828,57a254.07,254.07,0,0,1,33-3V0H0Q0,16.52,0,33A345.1,345.1,0,0,0,40,51Z" fill="#7fbfe5" opacity="0.33"/><path d="M0,48A827.34,827.34,0,0,0,122,32c37.64-7.87,57.66-14.92,102-21,26.61-3.65,49.3-6.76,79-6,46.69,1.2,63.48,10.76,113,18,14.2,2.08,55.09,6.72,107,5,46.75-1.55,88.64-8,115-12,28.91-4.43,34.82-6.41,59-9,19.78-2.12,48.16-5,84-3,16.58,1,33.18,2.87,43,4,15.09,1.75,27.75,3.57,37,5V0H0Z" fill="#005687"/></g></g></svg>