<svg width="411" height="100" viewBox="0 0 411 100" fill="none" xmlns="http://www.w3.org/2000/svg">
<mask id="mask0" style="mask-type:alpha" maskUnits="userSpaceOnUse" x="0" y="0" width="411" height="100">
<rect width="411" height="100" fill="#C4C4C4"/>
</mask>
<g mask="url(#mask0)">
<mask id="mask1" style="mask-type:alpha" maskUnits="userSpaceOnUse" x="0" y="-274" width="411" height="369">
<rect y="-274" width="411" height="369" fill="#C4C4C4"/>
</mask>
<g mask="url(#mask1)">
<path d="M128.913 68.5532C74.1706 71.7127 85.7508 85.9308 33.1138 91.7234C-19.5233 97.5159 -49 81.7181 -49 81.7181L-7.41675 24.8457L102.595 18L460 62.234C460 62.234 447.258 78.6219 413.153 81.7181C384.865 84.286 378.413 68.5532 272.612 74.3457C166.812 80.1383 183.656 65.3936 128.913 68.5532Z" fill="#005687" fill-opacity="0.8" stroke="#7FBFE5"/>
<path d="M83 86.0002C40 87.5002 -4.5 66.0002 -4.5 66.0002L-15.5 7L434.5 2.5L443.5 86.0002C443.5 86.0002 436 69.4998 382 81C328 92.5002 319.5 80 224.5 74.5C129.5 69 126 84.5002 83 86.0002Z" fill="#4292BD" fill-opacity="0.5"/>
<path fill-rule="evenodd" clip-rule="evenodd" d="M411 -276H0V3.84927L-18.5 5L-21 75C-21 75 -17.5 76.5 32.5 71C55.4194 68.4789 67.4126 65.3274 78.689 62.3642C92.0129 58.8631 104.336 55.6248 132.5 54C151.635 52.8961 163.931 55.5158 177.686 58.446C201.311 63.4791 229.237 69.4285 303.5 59C421 42.5 418.5 64.5 418.5 64.5L425.5 40.5L411 38.7062V-276Z" fill="#53A7D8"/>
<path fill-rule="evenodd" clip-rule="evenodd" d="M411 -276H0V3.84927L-18.5 5L-21 75C-21 75 -17.5 76.5 32.5 71C55.4194 68.4789 67.4126 65.3274 78.689 62.3642C92.0129 58.8631 104.336 55.6248 132.5 54C151.635 52.8961 163.931 55.5158 177.686 58.446C201.311 63.4791 229.237 69.4285 303.5 59C421 42.5 418.5 64.5 418.5 64.5L425.5 40.5L411 38.7062V-276Z" fill="#005687"/>
<path d="M179.967 -231.049C140.675 -265.867 110.864 -262.291 64.2279 -260.734C10.3582 -258.935 -64.7731 -211.663 -64.7731 -211.663C-60.3525 -122.608 -103.232 -6.89703 -90.6937 -6.89703C-78.1553 -6.89703 14.5967 42.7799 34.6903 31.2694C54.7839 19.7589 96.6112 -0.121399 111.571 -19.3221C144.074 -61.0375 165.142 -37.4641 217.586 -75.6306C270.031 -113.797 263.356 -127.805 264.963 -160.774C266.696 -196.318 206.527 -207.514 179.967 -231.049Z" fill="#297BAB" fill-opacity="0.1"/>
<path opacity="0.03" d="M374 -104C418.757 -124.16 428.402 -122.428 468.379 -91.7264C528.276 -45.7287 468.379 120.44 468.379 120.44C468.379 120.44 121.008 254.45 156.553 120.44C167.512 79.1234 168.717 65.3917 194.39 33.8718C216.264 7.01465 240.66 9.52272 288.5 -19.5001C336.34 -48.5229 341.673 -89.4389 374 -104Z" stroke="#69B0DA" stroke-width="20"/>
</g>
</g>
</svg>
