<svg xmlns="http://www.w3.org/2000/svg" viewBox="0 0 382.56 283.54"><g id="Camada_2" data-name="Camada 2"><g id="Ícones"><path d="M0,155.92c.51-6.07.86-12.16,1.58-18.2a150.86,150.86,0,0,1,21.5-62.48,20.85,20.85,0,0,1,2.63-3.61c2.61-2.71,5.94-3,8.79-1,3.11,2.17,4,5.41,2.32,8.84-1.46,2.89-3.21,5.64-4.79,8.47a135.26,135.26,0,0,0-17.16,64c-.36,18.74,1.43,37.06,7.64,54.9a92.36,92.36,0,0,0,87,62.25c17.39.14,34.42-1.51,50.67-7.94,31.58-12.48,49.24-38.87,49.5-72.8.11-14.34-1.68-28.22-8.55-40.93-11.32-21-29-31.92-52.93-32.69-14.72-.47-28.26,2.81-39.62,12.72-16.2,14.12-24.66,46.17-9.06,66,11.67,14.83,31.83,19.29,48,10.39,14.38-7.91,19.65-29.64,10.17-41.94a22.3,22.3,0,0,0-28.35-5.44c-5.83,3.46-8.48,10.31-7,18,1.32,6.59-.19,10.1-4.75,11.07s-7.68-1.93-9.17-8.17c-4.45-18.73,9.63-36.73,28.84-37.86,26.2-1.54,47.13,22.74,36.75,52.65-8.24,23.76-32.92,35.72-58,28.58s-41-30-38.82-56.92c1.82-22.17,11-40.59,30.2-52.91,10.29-6.59,21.78-9.64,34-10.28a78.11,78.11,0,0,1,45.12,11,6.79,6.79,0,0,0,5.53.22c28-13.9,43.66-36.56,47.4-67.57.67-5.56-1.27-8.83-6.5-11.43-27.31-13.56-56-20.2-86.5-18.2-21.37,1.39-41.31,8-59.94,18.5a54.49,54.49,0,0,1-5.3,2.77c-3.19,1.37-5.9.4-8-2.23A6.38,6.38,0,0,1,73.82,25a32.94,32.94,0,0,1,6.37-4.52c35.36-20,73-24.92,112.53-16.79A189.43,189.43,0,0,1,248,25c4,2.29,5.74,5.29,5.78,10,.35,34.47-14.09,61.31-41.58,81.54-.5.37-1,.74-1.47,1.15a6.46,6.46,0,0,0-.65,1.22,38.63,38.63,0,0,0,3.92.43c20.46,0,40.93-.06,61.38.08,4.07,0,6.25-1.46,7.24-5.36a85.1,85.1,0,0,1,3.3-9.94c1.17-3,.8-5.24-1.44-7.78A21.52,21.52,0,0,1,289,63.43c7.64-5,15.79-4.72,23.39-.22,8.26,4.88,11.41,12.8,10,22.12-1.31,8.55-6.29,14.47-14.67,17.29-2.31.78-5.64,1-6.64,2.68-2.09,3.43-3.06,7.58-4.17,11.53-.16.54,1.46,2.25,2.32,2.3a76.88,76.88,0,0,0,11.95-.07,8.81,8.81,0,0,0,4.78-2.55c7.42-7.22,14.65-14.63,22-21.89a6.12,6.12,0,0,0,1.66-6.76,20.8,20.8,0,0,1,3.55-19.12c6.36-8.51,17.33-11.18,27.19-6.68,8.78,4,13.9,14.85,11.7,24.8s-10.64,16.58-21.19,16.64c-1.37,0-2.88.27-4.09-.2-5-1.92-8.11.42-11.35,3.85-6.25,6.63-13,12.8-19.17,19.46a18.74,18.74,0,0,0-3.7,7.39c-1.1,3.69-1.46,7.59-2.41,11.33-.73,2.89.23,3.88,3.06,3.93a57.82,57.82,0,0,1,8.92.74c3.52.63,5.38,3,5.32,6.63s-1.8,6.2-5.33,6.68a71.57,71.57,0,0,1-13.4.7c-5-.27-8.48,1.31-11.45,5.37-5,6.77-5.8,5.19,1.2,10.77,10,8,19.38,16.79,29.18,25,1.55,1.31,3.9,1.91,6,2.31,3.65.69,7.52.5,11,1.53,11.55,3.39,19.41,10.71,23.11,22.43,4.65,14.77,5.17,29.92,4.59,45.18-.15,3.82-2.39,6.18-6.11,6.35-16.19.73-32.12-.56-47.57-6.06s-22.05-22-21.62-34.8a11.2,11.2,0,0,0-2.15-7.08c-9-10.57-20-18.77-32.12-25.35-6.33-3.43-13.15-6-19.79-8.83a43.31,43.31,0,0,0-5.72-1.45c1.28,2.09,1.87,3.23,2.62,4.25,5.37,7.21,10.79,14.37,16.14,21.58,3.41,4.59,3.52,7.53.36,12.31q-13.65,20.58-27.4,41.1c-2.62,3.91-5.45,5.17-9.11,4.11-3.94-1.13-5-4.38-5.12-7.86-.23-6.86-.28-13.73-.1-20.58a15.12,15.12,0,0,0-3.73-11c-1.72-2-3.14-4.19-4.75-6.26-2.59-3.34-3.26-3.19-5.68.17-3.49,4.85-6.88,9.84-10.9,14.22-13.05,14.25-29.5,22.81-48.11,27.27-25.57,6.13-51.16,7.17-76.38-1.55-35.05-12.12-57-36.86-67.91-71.86A141.56,141.56,0,0,1,.72,163,41.86,41.86,0,0,0,0,157.42ZM291.84,166l-.63-1.46A23.67,23.67,0,0,0,288,164c-5.84-.26-11.69-.35-17.53-.71-3.78-.23-6.23-2.64-6.36-6.1s1.52-6.06,5-7a27.93,27.93,0,0,1,6.63-.89c6.35-.12,12.71,0,19.06,0,9.71,0,10.21-.41,12.36-10,1-4.38.49-5.07-4.07-5.07q-43.36,0-86.73,0a37.8,37.8,0,0,0-4.74.7c1.83,3.44,3.39,6.23,4.83,9.09,4.75,9.43,6.2,19.68,7,30,.33,4,2.2,5.3,6,5.23q13.65-.22,27.29,0a47.22,47.22,0,0,0,22-5C283.39,171.92,287.52,168.75,291.84,166Zm75,91,1-.63c-.61-8.66-1.62-17.24-5.52-25.23a12.31,12.31,0,0,0-2.28-2.93c-6.21-6.44-16.45-8.37-24.92-4.74-8.26,3.54-14.22,12.59-13.78,21.33.42,8.43,4.13,17.26,15,19.89,5.32,1.29,10.71,2.31,16.08,3.33,1.06.2,2.22-.16,4.27-.35-2-2.39-3.24-4.07-4.68-5.56-3.91-4-7.95-7.91-11.86-11.94-3.62-3.73-3.89-7.46-.91-10.54,2.78-2.87,7.1-2.59,10.57.82,4.71,4.63,9.34,9.34,14,14C364.78,255.33,365.84,256.12,366.84,257ZM240.2,250.8a34.39,34.39,0,0,0,2.25-2.71c2.8-4.13,5.43-8.38,8.36-12.41,2-2.78,1.83-5-.22-7.72-7.88-10.3-15.59-20.73-23.4-31.08a35.15,35.15,0,0,0-3-3c-.64,4.16-.53,7.59-1.73,10.47-4.45,10.72-.53,18.82,6.61,26.81,4.77,5.34,10.26,10.77,10.2,18.92C239.28,250.21,239.64,250.36,240.2,250.8Zm31.56-58.5c.61.83.76,1.24,1.05,1.39a137.54,137.54,0,0,1,38.62,27.71c1.48,1.53,2.78,1.08,4.14-.32a68.62,68.62,0,0,1,6.45-6.2c2.26-1.81,2.15-3.19.22-5.13a148.73,148.73,0,0,0-29.69-23.06c-1.19-.71-3-1.31-4.19-.9C282.88,187.7,277.53,190,271.76,192.3ZM308.33,82c.07-4.42-2.92-7.49-7.41-7.6a7.45,7.45,0,1,0-.31,14.9C305.15,89.3,308.25,86.36,308.33,82Zm52.38-7.6a7.45,7.45,0,1,0-.13,14.9c4.53,0,7.6-3,7.63-7.39S365.22,74.44,360.71,74.37Z"/><path d="M151.32,30.12c2.12,0,4.25-.16,6.35,0,3.7.34,5.77,2.47,6.1,5.93.36,3.75-1.24,6.34-4.83,7.37a23.33,23.33,0,0,1-5.52.84c-27.87,1.17-52,11.32-72.84,29.82-15.63,13.89-25.92,31-31.71,51-2,6.81-5.14,9.32-9.95,7.94-4.4-1.25-5.81-5.45-3.7-11.88C52.68,67.82,90.3,38.79,145,30.43A58.14,58.14,0,0,1,151.32,30.12Z"/><path d="M59,50.35c0,4.19-2.56,6.72-6.77,6.65-4-.07-6.44-2.54-6.46-6.59s2.55-6.7,6.77-6.64C56.57,43.83,59,46.3,59,50.35Z"/></g></g></svg>