<svg width="411" height="369" viewBox="0 0 411 369" fill="none" xmlns="http://www.w3.org/2000/svg">
<mask id="mask0" style="mask-type:alpha" maskUnits="userSpaceOnUse" x="0" y="0" width="411" height="369">
<rect width="411" height="369" fill="#C4C4C4"/>
</mask>
<g mask="url(#mask0)">
<path d="M128.913 342.553C74.1706 345.713 85.7508 359.931 33.1138 365.723C-19.5233 371.516 -49 355.718 -49 355.718L-7.41675 298.846L102.595 292L460 336.234C460 336.234 447.258 352.622 413.153 355.718C384.865 358.286 378.413 342.553 272.612 348.346C166.812 354.138 183.656 339.394 128.913 342.553Z" fill="#005687" fill-opacity="0.8" stroke="#7FBFE5"/>
<path d="M83 360C40 361.5 -4.5 340 -4.5 340L-15.5 281L434.5 276.5L443.5 360C443.5 360 436 343.5 382 355C328 366.5 319.5 354 224.5 348.5C129.5 343 126 358.5 83 360Z" fill="#4292BD" fill-opacity="0.5"/>
<path fill-rule="evenodd" clip-rule="evenodd" d="M411 -2H0V277.849L-18.5 279L-21 349C-21 349 -17.5 350.5 32.5 345C55.4194 342.479 67.4126 339.327 78.689 336.364C92.0129 332.863 104.336 329.625 132.5 328C151.635 326.896 163.931 329.516 177.686 332.446C201.311 337.479 229.237 343.428 303.5 333C421 316.5 418.5 338.5 418.5 338.5L425.5 314.5L411 312.706V-2Z" fill="#53A7D8"/>
<path fill-rule="evenodd" clip-rule="evenodd" d="M411 -2H0V277.849L-18.5 279L-21 349C-21 349 -17.5 350.5 32.5 345C55.4194 342.479 67.4126 339.327 78.689 336.364C92.0129 332.863 104.336 329.625 132.5 328C151.635 326.896 163.931 329.516 177.686 332.446C201.311 337.479 229.237 343.428 303.5 333C421 316.5 418.5 338.5 418.5 338.5L425.5 314.5L411 312.706V-2Z" fill="#005687"/>
<path d="M179.967 42.9511C140.675 8.1332 110.864 11.709 64.2279 13.2661C10.3582 15.0647 -64.7731 62.3372 -64.7731 62.3372C-60.3525 151.392 -103.232 267.103 -90.6937 267.103C-78.1553 267.103 14.5967 316.78 34.6903 305.269C54.7839 293.759 96.6112 273.879 111.571 254.678C144.074 212.963 165.142 236.536 217.586 198.369C270.031 160.203 263.356 146.195 264.963 113.226C266.696 77.6821 206.527 66.4865 179.967 42.9511Z" fill="#297BAB" fill-opacity="0.1"/>
<path d="M-135.539 252.306C-135.932 252.306 -136.274 252.197 -136.567 251.982M-136.567 251.982C-146.275 244.877 -103.302 122.481 -107.881 27.6401C-107.881 27.6401 -46.2203 -22.6885 11.5 -22.9921C65.1506 -23.2742 116.074 -16.1937 158 22.0081C186.34 47.8307 246.5 44.008 245 76.008C243.5 108.008 257.46 126.632 201.5 168.508C145.54 210.384 79.5338 182.129 57.5169 242.319C35.5 302.508 -136.567 251.982 -136.567 251.982Z" stroke="#7FBFE5" stroke-opacity="0.4" stroke-width="2"/>
<path d="M289.345 61.2818C243.569 31.3849 289.345 -2 289.345 -2H411V143C411 143 411 126.557 360.688 124.564C310.377 122.57 335.12 91.1787 289.345 61.2818Z" fill="#7FBFE5" fill-opacity="0.05" stroke="#045A8B"/>
<path d="M289.12 127.28C243.26 92.5709 332.355 -3 332.355 -3H411V217C411 217 411 203.061 360.595 200.747C310.191 198.433 334.98 161.989 289.12 127.28Z" fill="#297BAB" fill-opacity="0.2" stroke="#045A8B"/>
<path d="M292.5 147.5C251.056 107.112 339.928 -3 339.928 -3H411V253C411 253 344.898 284.174 365.449 234.087C386 184 333.944 187.888 292.5 147.5Z" stroke="#7FBFE5" stroke-opacity="0.7" stroke-width="2"/>
<path opacity="0.03" d="M374 170C418.757 149.84 428.402 151.572 468.379 182.274C528.276 228.271 468.379 394.44 468.379 394.44C468.379 394.44 121.008 528.45 156.553 394.44C167.512 353.123 168.717 339.392 194.39 307.872C216.264 281.015 240.66 283.523 288.5 254.5C336.34 225.477 341.673 184.561 374 170Z" stroke="#69B0DA" stroke-width="20"/>
</g>
</svg>
