<svg xmlns="http://www.w3.org/2000/svg" viewBox="0 0 381.67 381.85"><g id="Camada_2" data-name="Camada 2"><g id="Ícones"><path d="M295.76,141.91A129.73,129.73,0,0,1,353,105.74v-1.12c-2-1.05-4-2.07-5.92-3.16-2.73-1.54-4.74-4-3.74-7,.72-2.17,2.83-4.15,4.8-5.54,1-.74,3.33-.56,4.64.08,8.37,4.1,16.7,8.32,24.9,12.77a7.08,7.08,0,0,1,3.72,8.26c-.87,3.74-3.77,5-7.19,5.53-21.2,3.22-40.3,11.28-56.66,25.25-4.91,4.19-9.14,9.16-13.72,13.74-2.55,2.56-2.67,5.4-2.2,8.91,1.72,12.7,4,25.46,4.09,38.2.05,11.48-2.7,23-3.91,34.46-.27,2.53,0,5.62,1.24,7.72,13.25,22.32,19.5,46.39,17.84,72.28a122.48,122.48,0,0,1-21,61.6c-2.09,3.1-4.73,4.78-8.54,3.88s-4.94-3.8-5.48-7.21c-3-19-9.6-36.62-21.49-52-2.05-2.66-4.3-5.17-6.5-7.71-1.65-1.91-3.46-2.17-5.57-.59a121.74,121.74,0,0,1-29.95,16,10.54,10.54,0,0,0-5,5C211.6,347,206.15,359,200.58,371q-1.58,3.39-3.22,6.75a7.27,7.27,0,0,1-13.11-.1q-6.44-13.71-12.83-27.45c-2.48-5.31-4.76-10.73-7.52-15.89a9.88,9.88,0,0,0-4.73-4.35,118.83,118.83,0,0,1-29.64-15.76c-2.69-2-4.53-1-6.42,1.06a103.92,103.92,0,0,0-22.84,40c-1.91,6.3-3.14,12.82-4.5,19.28-.71,3.39-1.82,6.29-5.6,7.13s-6.5-.86-8.48-4c-24.58-38.87-28.23-79.37-9.38-121.56,1.93-4.32,4.63-8.29,6.52-12.62a12.26,12.26,0,0,0,1-7A158.76,158.76,0,0,1,80,163a8.33,8.33,0,0,0-1.8-8C60.56,133.86,38,121.13,11,116.17c-1.59-.29-3.2-.51-4.79-.84-2.88-.59-5.14-2-5.92-5-.82-3.23.09-6.09,2.87-7.9a132.82,132.82,0,0,1,14.39-8.69c33-16,66.8-17.9,101.19-4.7,3.08,1.18,5.4,1.14,7.84-1.06a21.87,21.87,0,0,1,5.1-3.77c5.82-2.78,7.12-7.33,6.89-13.45-.66-18,3.7-34.68,14.3-49.39C163.32,6.85,177-1.56,195.59.24,207.14,1.36,216.44,7,224,15.38c13.47,15,19.43,33,19.06,52.92-.15,7.73,1.63,12.87,8.46,17.3,5.25,3.4,9.33,5.09,15.17,2.13,3.61-1.82,7.78-2.63,11.76-3.64,5.78-1.46,9.75.18,10.87,4.23,1.23,4.5-1.24,7.67-7.23,9.38-3,.85-6,1.76-8.94,2.73-2,.67-2.51,2-1.08,3.68a141,141,0,0,1,21.89,35.55A13.28,13.28,0,0,0,295.76,141.91ZM190.93,154.35c-7.23,0-14.46.11-21.69,0a7.63,7.63,0,0,0-7.57,4.28Q151.25,177,140.51,195.17c-1.83,3.11-2,5.84-.09,9.05q11.13,18.84,21.9,37.89a6.52,6.52,0,0,0,6.35,3.64q22.26-.09,44.51,0a6.28,6.28,0,0,0,6.07-3.47q10.92-19.17,22.07-38.21a7.51,7.51,0,0,0,.11-8.38q-11-18.72-21.73-37.55a6.9,6.9,0,0,0-6.7-3.8C205.65,154.43,198.29,154.36,190.93,154.35Zm-.08-14.19c7.23,0,14.45,0,21.68,0a7.1,7.1,0,0,0,6.95-4c6.8-12,13.79-24,20.7-35.95,2.26-3.93,2.09-4.72-1.87-7.12q-47.49-28.66-95,0c-3.94,2.39-4.11,3.17-1.82,7.13,6.85,11.87,13.78,23.69,20.51,35.63,1.67,3,3.77,4.34,7.15,4.29C176.4,140.09,183.62,140.16,190.85,140.16Zm.08,119.77c-7.48,0-15-.22-22.43.14-2,.09-4.8,1.39-5.78,3-7.53,12.48-14.69,25.18-22,37.8-1.15,2-.89,3.54,1.11,4.72,2.68,1.59,5.3,3.29,8.06,4.7,30.51,15.53,60.22,13.75,89.2-4.13,2.73-1.69,3-3.42,1.44-6.13Q230,282,219.62,263.77a7.08,7.08,0,0,0-7-3.89C205.38,260,198.16,259.92,190.93,259.93Zm-82.8-53.12v0c-4.11,0-8.22,0-12.33,0-5.31,0-5.67.28-5.28,5.49,1.52,19.93,6.92,38.8,17.2,55.94,4.9,8.17,11.19,15.52,17,23.16,1.33,1.76,3.16,3.36,4.93.3,7-12.19,14.11-24.36,21-36.65a5.82,5.82,0,0,0-.08-4.83c-7.58-13.46-15.26-26.87-23.21-40.11-1-1.64-3.68-2.92-5.72-3.14C117.14,206.48,112.62,206.81,108.13,206.81Zm165.76,0c-4.36,0-8.72.12-13.08,0-3.4-.13-5.53,1.28-7.2,4.21q-11,19.33-22.2,38.53a5.67,5.67,0,0,0-.08,6.29c6.81,11.74,13.52,23.54,20.34,35.28,1.8,3.09,2.88,3.13,5.31.29,3.4-4,6.86-7.92,9.93-12.14,14.29-19.63,21.94-41.76,24.18-65.83.6-6.44.34-6.58-6-6.6C281.37,206.77,277.63,206.78,273.89,206.79Zm-165.76-14.2c4.49,0,9-.05,13.47,0a6.59,6.59,0,0,0,6.36-3.69q10.74-18.84,21.72-37.56c1.88-3.19,1.78-5.89-.08-9-6.42-10.84-12.65-21.78-19-32.68-2.26-3.91-3-4.05-6.3-.66a114.87,114.87,0,0,0-23.07,35.12,137.42,137.42,0,0,0-10.85,44.1c-.25,3.32,1,4.51,4.25,4.42C99.15,192.5,103.64,192.6,108.13,192.59Zm165.44,0v0c4.24,0,8.48,0,12.71,0,4.73,0,5.43-.42,4.79-5.21a208,208,0,0,0-4.4-25c-5.3-20.36-14.85-38.54-29.66-53.73-2.91-3-3.78-2.83-5.83.72-6.38,11-12.66,22-19.14,33a8,8,0,0,0,0,9q11,18.68,21.72,37.55a6.57,6.57,0,0,0,6.38,3.65C264.59,192.54,269.08,192.59,273.57,192.59ZM191.13,14.35c-9.23-.33-16.55,4-22.95,10.4-1.9,1.9-2,3.64.32,5.28,1.62,1.17,3.29,2.28,4.8,3.57a7.57,7.57,0,0,1,1.37,9.53c-1.85,2.81-5.58,3.67-9,2a22.51,22.51,0,0,1-3.76-2.42c-2.59-2.05-4.63-1.5-5.24,1.6-1.53,7.79-3,15.62-3.93,23.5-.44,3.52.78,4.08,4.36,2.82a99.3,99.3,0,0,1,67.47,0c3.64,1.27,4.74.67,4.34-3.27a193.7,193.7,0,0,0-3.18-20.62c-1.3-6.1-2.27-6.26-7.63-2.87-.53.34-1.05.68-1.6,1-3.75,2-7.68,1.25-9.6-1.81a7.63,7.63,0,0,1,2.13-10c1.38-1.07,2.81-2.07,4.22-3.1,2.08-1.52,2.15-3.2.38-5C207.51,18.66,200.48,14.28,191.13,14.35Zm-105.74,339a7.21,7.21,0,0,0,1-1.49,127.56,127.56,0,0,1,27.23-47.3c1.58-1.75,1.19-3.37-.31-4.94-10.46-10.95-18.26-23.65-24.6-37.32A25.2,25.2,0,0,0,87,259.5C72,277.54,71,338.61,85.39,353.32Zm209.36-93.59c-.42.35-.68.46-.79.66-.59,1.1-1.2,2.19-1.72,3.32-6.1,13.09-13.71,25.18-23.72,35.67-2.17,2.28-1.54,4,.32,6.09a123.88,123.88,0,0,1,25.7,44.35,33.24,33.24,0,0,0,1.71,3.65C310.75,337.33,309.58,275.91,294.75,259.73Zm-266-155.21-.06,1.19a129.47,129.47,0,0,1,57.45,36.51c1.15-2,2-3.24,2.55-4.56a137.5,137.5,0,0,1,19.23-31.5c3.67-4.63,3.69-4.89-2.12-6.69C80.61,91.68,55.86,93.11,31.53,103A26.19,26.19,0,0,0,28.73,104.52Zm161.7,251.85,1.23.15c2.92-6.36,5.91-12.7,8.63-19.14.17-.42-1.62-2.39-2.57-2.44-4.46-.28-8.95-.14-13.43-.14-3,0-3.79,1.42-2.57,4.07,2,4.41,4.05,8.83,6.16,13.2C188.6,353.57,189.57,354.94,190.43,356.37Z"/><path d="M323.83,87.81a6.81,6.81,0,0,1-7.18,6.57,6.68,6.68,0,0,1-6.56-6.75,6.87,6.87,0,0,1,13.74.18Z"/></g></g></svg>