<svg width="28" height="28" viewBox="0 0 28 28" fill="none" xmlns="http://www.w3.org/2000/svg">
<path d="M27.9892 13.2788C27.8824 13.2868 27.8772 13.1976 27.8633 13.1326C27.6548 12.1679 26.9969 11.7864 26.0712 11.7119C24.9703 11.6201 23.8619 11.6825 22.7783 11.8975C20.8025 12.2914 19.0587 13.1604 17.5205 14.4554C16.8159 15.0481 16.136 15.6708 15.3626 16.1772C14.29 16.8808 13.0652 17.3195 11.7894 17.4569C10.3509 17.6256 8.89322 17.4155 7.56122 16.8474C6.46839 16.3893 5.58618 15.5402 5.0874 14.4664C4.58861 13.3927 4.50918 12.1716 4.86466 11.0424C5.08313 10.3851 5.36881 9.75205 5.71717 9.15322C5.77853 9.02643 5.87414 8.91928 5.99323 8.84387C6.11231 8.76845 6.25013 8.72777 6.39113 8.72641C6.83845 8.69753 7.28067 8.61508 7.7083 8.48086C9.08513 8.07774 10.3011 7.25433 11.1857 6.12612C11.4784 5.75267 11.4418 5.5188 11.01 5.15704C10.0233 4.31988 8.82521 3.76974 7.54658 3.56676C7.09445 3.50513 6.63739 3.4875 6.18184 3.51414C5.77571 3.52729 5.49764 3.38551 5.27152 3.0391C4.33852 1.60814 3.04183 0.658059 1.39902 0.174981C1.31779 0.151594 1.24462 0.127477 1.16193 0.108475C0.771166 0.0185834 0.553099 0.1304 0.419918 0.511893C0.235928 1.03765 0.124169 1.58589 0.0876965 2.14164C-0.0203699 3.6181 0.347335 5.09037 1.13705 6.34318C1.43889 6.84307 1.81211 7.29633 2.24494 7.68864C2.45642 7.875 2.46081 7.96197 2.26543 8.25284C1.44001 9.47346 0.876447 10.8515 0.610177 12.3002C0.0562305 15.2834 0.537001 18.0913 2.18567 20.6565C3.15575 22.182 4.46874 23.4606 6.02029 24.3905C7.57184 25.3204 9.31918 25.8761 11.1235 26.0135C11.8721 26.0763 12.6185 26.0361 13.3656 26.0558C13.7154 26.0653 13.7424 26.0807 13.8471 26.4139C13.9537 26.7339 14.0858 27.0447 14.2422 27.3436C14.3466 27.5487 14.5144 27.7148 14.7208 27.8171C14.794 27.8551 14.9067 27.8639 14.9023 27.9889C14.1508 27.7258 13.9978 27.03 13.7724 26.3979C13.6993 26.1991 13.6393 26.118 13.4066 26.1209C12.2218 26.1355 11.0371 26.153 9.86262 25.9265C7.03874 25.3813 4.71831 23.9876 2.90573 21.7732C0.970938 19.4038 0.132334 16.6632 0.3504 13.62C0.487147 11.6582 1.14378 9.76805 2.25299 8.14321C2.36422 7.97805 2.3591 7.89765 2.20982 7.74856C0.168191 5.7059 -0.469177 3.29416 0.343083 0.516278C0.481386 0.0448932 0.717015 -0.0771553 1.18681 0.0434316C2.94305 0.49143 4.32389 1.46782 5.31397 2.97844C5.5335 3.31755 5.78376 3.4491 6.19209 3.43083C8.0815 3.34824 9.73676 3.95191 11.1593 5.19359C11.5391 5.52538 11.5589 5.77825 11.2325 6.17728C9.98849 7.71202 8.3786 8.60875 6.40283 8.79731C6.08744 8.82727 5.91475 8.93251 5.764 9.21534C5.36812 9.95494 4.98687 10.6945 4.81271 11.5248C4.35974 13.7172 5.49984 15.9346 7.58683 16.7736C10.6222 17.9933 13.4556 17.5841 16.0468 15.5874C16.9842 14.8646 17.8272 14.022 18.8392 13.395C21.1877 11.9396 23.7328 11.3725 26.4744 11.6936C27.2304 11.7842 27.7916 12.3374 27.9306 13.115C27.9409 13.1728 27.9006 13.2502 27.9892 13.2788Z" fill="white"/>
<path d="M27.93 13.1172C27.7887 12.3396 27.2297 11.7864 26.4737 11.6958C23.7311 11.3674 21.1872 11.9335 18.8422 13.3942C17.8301 14.022 16.9871 14.8647 16.0497 15.5867C13.4586 17.5833 10.6252 17.9926 7.58981 16.7729C5.50281 15.9324 4.36272 13.7187 4.81568 11.5248C4.98692 10.6945 5.36817 9.95494 5.76698 9.21534C5.91772 8.93251 6.09042 8.82727 6.40581 8.79731C8.38158 8.60876 9.99146 7.71568 11.2355 6.17728C11.5582 5.77971 11.5384 5.52538 11.1623 5.19359C9.73242 3.95191 8.07863 3.34824 6.18921 3.43083C5.78308 3.4491 5.53574 3.31755 5.31109 2.97844C4.3232 1.46782 2.93944 0.49143 1.18612 0.0434316C0.716331 -0.0771553 0.480703 0.0448932 0.342399 0.516278C-0.469861 3.29343 0.167507 5.70517 2.20694 7.75149C2.35329 7.89766 2.36134 7.98097 2.25011 8.14614C1.1409 9.77098 0.484268 11.6612 0.347522 13.623C0.127992 16.6691 0.968059 19.4068 2.9087 21.7761C4.72128 23.9905 7.04171 25.3842 9.8656 25.9294C11.0401 26.156 12.2248 26.1384 13.4095 26.1238C13.6393 26.1238 13.7022 26.202 13.7754 26.4008C14.0008 27.033 14.1537 27.7287 14.9053 27.9918H15.3977C15.6831 27.945 15.9341 27.8457 16.1207 27.6052C16.4866 27.1382 16.832 26.6551 17.061 26.1048C17.0858 26.0365 17.1278 25.9757 17.1831 25.9284C17.2384 25.8812 17.305 25.849 17.3764 25.8351C18.4606 25.578 19.5099 25.1918 20.5018 24.6848C20.9612 24.4611 21.4036 24.2041 21.8256 23.916C21.9628 23.8215 22.057 23.6766 22.0876 23.5129C22.1181 23.3493 22.0826 23.1802 21.9888 23.0426C21.8036 22.7744 21.448 22.7021 21.1341 22.8709C21.0697 22.9052 21.0104 22.9484 20.9489 22.9878C19.9695 23.6093 18.9086 24.0921 17.7965 24.4224C17.6282 24.4729 17.5594 24.4838 17.585 24.2544C17.6816 23.3971 17.6457 22.542 17.372 21.7176C17.2572 21.372 17.3347 21.133 17.5916 20.8925C18.3265 20.1953 18.9786 19.416 19.5351 18.57C19.8705 18.0703 20.2681 17.6153 20.7184 17.2157C22.2815 15.8272 24.1577 15.3799 26.1796 15.3207C26.383 15.3148 26.4372 15.3938 26.3837 15.5867C26.1212 16.5646 25.7434 17.5078 25.2583 18.3968C25.0388 18.7877 24.7863 19.1561 24.5653 19.5434C24.3853 19.8591 24.419 20.1098 24.6246 20.321C24.929 20.6287 25.3776 20.5651 25.6491 20.1683C26.53 18.888 27.1856 17.4668 27.5875 15.966C27.7984 15.1767 27.9337 14.3692 27.9914 13.5543V13.2809C27.9 13.2503 27.9402 13.1728 27.93 13.1172ZM13.4908 24.8668C13.4966 24.9516 13.4827 25.0013 13.3795 25.0064C10.8257 25.1175 8.38743 24.755 6.22287 23.24C8.68599 24.1308 11.1462 24.0125 13.6283 23.2027C13.5274 23.7662 13.4564 24.3128 13.4908 24.8668ZM15.1738 26.8868C14.554 25.6188 14.4333 24.3647 14.8394 23.0755C15.0889 22.2826 15.1321 21.5072 14.7955 20.7318C14.6345 20.3605 14.3308 20.2099 14.0162 20.3466C13.7183 20.4767 13.6181 20.7961 13.7601 21.16C14.0293 21.8507 14.0308 21.8587 13.3466 22.0991C11.204 22.8519 9.02919 23.0529 6.87048 22.2453C3.70633 21.0562 1.85642 18.7578 1.49054 15.3857C1.20954 12.8015 1.93692 10.4519 3.46631 8.35223C3.84756 7.82896 3.82194 7.65502 3.328 7.24283C1.53664 5.74463 0.845122 3.83936 1.22637 1.54382C1.27906 1.22518 1.28857 1.22591 1.59225 1.34285C2.74871 1.77046 3.73207 2.56636 4.39053 3.60769C4.81861 4.28151 5.39012 4.587 6.19506 4.54169C7.5598 4.4686 8.80234 4.8501 9.92707 5.63136C10.0866 5.74171 10.099 5.80456 9.9578 5.94927C9.01309 6.91177 7.80568 7.50593 6.38166 7.68352C6.41093 7.36707 6.44606 7.05428 6.46728 6.74075C6.47924 6.57689 6.47654 6.41229 6.45923 6.24891C6.41532 5.8908 6.18774 5.70078 5.85406 5.72125C5.5372 5.74244 5.33743 5.95877 5.34182 6.30591C5.34182 6.70714 5.34182 7.10982 5.25181 7.50155C5.13396 7.9879 4.94247 8.45344 4.68396 8.88208C4.13002 9.84386 3.70779 10.8553 3.62656 11.9779C3.43265 14.6615 4.9013 16.9855 7.4354 17.9129C10.8879 19.1758 14.0586 18.6189 16.9242 16.3234C17.8118 15.6123 18.6336 14.8157 19.6193 14.2288C21.6682 13.0091 23.8811 12.5348 26.252 12.7898C26.664 12.8337 26.8674 13.0865 26.8287 13.4958C26.7708 14.1119 26.7708 14.1134 26.1606 14.1265C24.509 14.1638 22.9188 14.4576 21.4509 15.2527C20.2325 15.9074 19.2029 16.8636 18.4609 18.0299C18.3577 18.1907 18.2904 18.2425 18.1133 18.103C17.8089 17.8647 17.4628 17.9093 17.2711 18.176C17.0793 18.4428 17.1313 18.7673 17.4613 18.9975C17.634 19.1188 17.5887 19.1926 17.4752 19.3037C17.2155 19.5595 16.963 19.8248 16.6996 20.0755C16.1485 20.5951 15.9839 21.2083 16.2027 21.9369C16.7391 23.7523 16.3527 25.3681 15.1738 26.8868Z" fill="white"/>
<path d="M23.9946 21.8172C23.9939 21.9269 23.9605 22.0339 23.8987 22.1246C23.8369 22.2153 23.7496 22.2856 23.6477 22.3266C23.5458 22.3676 23.434 22.3775 23.3265 22.3549C23.2191 22.3323 23.1207 22.2783 23.0441 22.1997C22.9674 22.1212 22.9158 22.0216 22.8959 21.9138C22.876 21.8059 22.8886 21.6945 22.9322 21.5939C22.9758 21.4932 23.0484 21.4077 23.1408 21.3483C23.2331 21.2889 23.3411 21.2583 23.4509 21.2603C23.5235 21.2602 23.5954 21.2746 23.6623 21.3028C23.7293 21.3309 23.7899 21.3721 23.8406 21.424C23.8913 21.476 23.931 21.5375 23.9575 21.6051C23.9839 21.6726 23.9966 21.7447 23.9946 21.8172Z" fill="white"/>
<path d="M27.9885 13.5522C27.9307 14.3671 27.7954 15.1747 27.5845 15.964C27.1828 17.4636 26.5277 18.8838 25.6475 20.1633C25.3746 20.5602 24.926 20.6238 24.6231 20.3161C24.4145 20.1049 24.3838 19.8542 24.5638 19.5385C24.7833 19.1511 25.0394 18.7828 25.2568 18.3918C25.7419 17.5029 26.1197 16.5596 26.3822 15.5818C26.4357 15.3896 26.3822 15.3099 26.1781 15.3157C24.1584 15.3749 22.28 15.8273 20.7169 17.2108C20.2666 17.6103 19.869 18.0654 19.5336 18.565C18.9771 19.4111 18.325 20.1904 17.5901 20.8876C17.3332 21.1273 17.2557 21.367 17.3705 21.7127C17.6442 22.5371 17.6801 23.3936 17.5835 24.2494C17.5579 24.4789 17.6267 24.4686 17.795 24.4175C18.9071 24.0871 19.968 23.6043 20.9474 22.9829C21.0089 22.9434 21.0682 22.9003 21.1326 22.8659C21.4465 22.6971 21.8021 22.7695 21.9873 23.0377C22.0811 23.1753 22.1166 23.3443 22.0861 23.508C22.0555 23.6716 21.9613 23.8165 21.8241 23.911C21.4021 24.1991 20.9597 24.4561 20.5003 24.6799C19.5084 25.1869 18.4591 25.5731 17.3749 25.8302C17.3035 25.8441 17.2369 25.8762 17.1816 25.9235C17.1263 25.9707 17.0843 26.0315 17.0595 26.0999C16.8305 26.6516 16.4866 27.1332 16.1192 27.6002C15.9326 27.8385 15.6802 27.9401 15.3962 27.9869C15.9736 27.8078 16.2612 27.3291 16.5671 26.8658C16.6571 26.7298 16.7668 26.5946 16.8107 26.4419C16.9622 25.912 17.342 25.7454 17.8455 25.6226C19.2358 25.2828 20.512 24.6725 21.715 23.9044C21.958 23.7495 22.0736 23.5471 22.0195 23.2628C21.9463 22.8849 21.5109 22.7117 21.1567 22.9361C20.4989 23.3598 19.8061 23.7265 19.0858 24.0323C18.5653 24.2565 18.0268 24.4362 17.4759 24.5695C17.542 24.1054 17.567 23.6363 17.5506 23.1678C17.53 22.6582 17.4386 22.154 17.2791 21.6696C17.1671 21.3443 17.2381 21.0966 17.4986 20.8657C18.218 20.2199 18.8495 19.4828 19.377 18.6732C20.6693 16.6999 22.528 15.6607 24.836 15.3559C25.3148 15.2923 25.7969 15.2559 26.2798 15.247C26.4825 15.247 26.5418 15.2653 26.4818 15.4941C26.1298 16.86 25.5521 18.1578 24.7724 19.3338C24.7219 19.4069 24.6714 19.4851 24.626 19.5626C24.4438 19.8644 24.4965 20.1816 24.757 20.3585C25.0175 20.5353 25.3578 20.4761 25.5619 20.1706C25.7998 19.8162 26.0317 19.4566 26.2417 19.0846C27.1652 17.4377 27.7387 15.6183 27.9263 13.7401C27.9336 13.6765 27.8911 13.5888 27.9885 13.5522Z" fill="white"/>
<path d="M23.9946 21.8172C23.9939 21.9269 23.9605 22.0339 23.8987 22.1246C23.8369 22.2153 23.7496 22.2856 23.6477 22.3266C23.5458 22.3676 23.434 22.3775 23.3265 22.3549C23.2191 22.3323 23.1207 22.2783 23.0441 22.1997C22.9674 22.1212 22.9158 22.0216 22.8959 21.9138C22.876 21.8059 22.8886 21.6945 22.9322 21.5939C22.9758 21.4932 23.0484 21.4077 23.1408 21.3483C23.2331 21.2889 23.3411 21.2583 23.4509 21.2603C23.5235 21.2602 23.5954 21.2746 23.6623 21.3028C23.7293 21.3309 23.7899 21.3721 23.8406 21.424C23.8913 21.476 23.931 21.5375 23.9575 21.6051C23.9839 21.6726 23.9966 21.7447 23.9946 21.8172Z" fill="white"/>
</svg>
